# MagicaVoxel @ Ephtracy

# group
o 

# material
mtllib untitled.mtl
usemtl palette

# normals
vn -1 0 0
vn 1 0 0
vn 0 0 1
vn 0 0 -1
vn 0 -1 0
vn 0 1 0

# texcoords
vt 0.0175781 0.5
vt 0.0214844 0.5
vt 0.0371094 0.5
vt 0.369141 0.5
vt 0.537109 0.5
vt 0.701172 0.5
vt 0.873047 0.5

# verts
v -1.2 0.9 -1
v -1.2 0.9 -1.1
v -1.2 1.5 -1
v -1.2 1.5 -1.1
v -1.1 0.1 1.3
v -1.1 0.1 -1
v -1.1 0.1 -1.1
v -1.1 0.1 -1.4
v -1.1 0.3 1.3
v -1.1 0.3 -1
v -1.1 0.3 -1.1
v -1.1 0.3 -1.4
v -1.1 0.4 1.3
v -1.1 0.4 1.1
v -1.1 0.4 1
v -1.1 0.4 0.8
v -1.1 0.4 -0.3
v -1.1 0.4 -0.4
v -1.1 0.5 -0.2
v -1.1 0.5 -0.3
v -1.1 0.5 -0.4
v -1.1 0.6 1
v -1.1 0.6 0.8
v -1.1 0.6 0.7
v -1.1 0.6 0.2
v -1.1 0.6 0.0999998
v -1.1 0.7 1
v -1.1 0.7 0.9
v -1.1 0.7 0.0999998
v -1.1 0.7 -0.2
v -1.1 0.7 -0.4
v -1.1 0.7 -0.6
v -1.1 0.7 -0.9
v -1.1 0.7 -1
v -1.1 0.7 -1.1
v -1.1 0.7 -1.4
v -1.1 0.8 0.2
v -1.1 0.8 -0.2
v -1.1 0.8 -0.4
v -1.1 0.8 -0.6
v -1.1 0.8 -0.7
v -1.1 0.9 1
v -1.1 0.9 0.9
v -1.1 0.9 -0.3
v -1.1 0.9 -0.4
v -1.1 0.9 -0.6
v -1.1 0.9 -0.7
v -1.1 0.9 -1
v -1.1 0.9 -1.1
v -1.1 0.9 -1.4
v -1.1 1 0.8
v -1.1 1 0.7
v -1.1 1 -0.2
v -1.1 1 -0.3
v -1.1 1 -0.4
v -1.1 1.2 1.1
v -1.1 1.2 -0.9
v -1.1 1.2 -1.3
v -1.1 1.2 -1.4
v -1.1 1.3 0.4
v -1.1 1.3 0.3
v -1.1 1.3 -0.1
v -1.1 1.3 -0.2
v -1.1 1.4 1.3
v -1.1 1.4 0.4
v -1.1 1.4 -0.2
v -1.1 1.4 -0.6
v -1.1 1.4 -0.7
v -1.1 1.4 -0.9
v -1.1 1.4 -1.3
v -1.1 1.4 -1.4
v -1.1 1.5 1.3
v -1.1 1.5 0.3
v -1.1 1.5 -0.1
v -1.1 1.5 -0.2
v -1.1 1.5 -0.6
v -1.1 1.5 -0.7
v -1.1 1.5 -0.9
v -1.1 1.5 -1
v -1.1 1.5 -1.1
v -1.1 1.5 -1.4
v -1 0.1 -1
v -1 0.1 -1.1
v -1 0.3 -1
v -1 0.3 -1.1
v -0.9 1.4 1.3
v -0.9 1.4 1.2
v -0.9 1.5 1.2
v -0.9 1.5 0.6
v -0.9 1.5 0.4
v -0.9 1.5 -1.4
v -0.9 1.6 1.3
v -0.9 1.6 1.2
v -0.9 1.6 1.1
v -0.9 1.6 1
v -0.9 1.6 -0.5
v -0.9 1.6 -0.6
v -0.9 1.6 -1.3
v -0.9 1.6 -1.4
v -0.9 1.7 1.2
v -0.9 1.7 1.1
v -0.9 1.7 1
v -0.9 1.7 0.6
v -0.9 1.7 0.4
v -0.9 1.7 -0.5
v -0.9 1.7 -0.6
v -0.9 1.7 -1.3
v -0.8 0.4 -1.4
v -0.8 0.4 -1.5
v -0.8 0.5 -1.4
v -0.8 0.5 -1.5
v -0.8 1.6 1.3
v -0.8 1.6 1.2
v -0.8 1.6 1.1
v -0.8 1.6 1
v -0.8 1.6 -1.3
v -0.8 1.6 -1.4
v -0.8 1.7 1.3
v -0.8 1.7 1.2
v -0.8 1.7 1.1
v -0.8 1.7 1
v -0.8 1.7 0.6
v -0.8 1.7 0.4
v -0.8 1.7 -0.2
v -0.8 1.7 -0.3
v -0.8 1.7 -0.5
v -0.8 1.7 -0.6
v -0.8 1.7 -1.1
v -0.8 1.7 -1.2
v -0.8 1.7 -1.3
v -0.8 1.7 -1.4
v -0.8 1.8 1.2
v -0.8 1.8 0.6
v -0.8 1.8 0.4
v -0.8 1.8 -0.2
v -0.8 1.8 -0.3
v -0.8 1.8 -1.1
v -0.8 1.8 -1.2
v -0.8 1.8 -1.3
v -0.3 0.7 -1.4
v -0.3 0.7 -1.5
v -0.3 0.8 -1.4
v -0.3 0.8 -1.5
v -1 1.4 1.3
v -1 1.4 1.2
v -1 1.5 1.3
v -1 1.5 1.2
v -0.7 0.4 -1.4
v -0.7 0.4 -1.5
v -0.7 0.5 -1.4
v -0.7 0.5 -1.5
v -0.2 0.7 -1.4
v -0.2 0.7 -1.5
v -0.2 0.8 -1.4
v -0.2 0.8 -1.5
v 1.19209e-07 1.7 1.2
v 1.19209e-07 1.7 1.1
v 1.19209e-07 1.7 -1.2
v 1.19209e-07 1.7 -1.3
v 1.19209e-07 1.8 1.2
v 1.19209e-07 1.8 1.1
v 1.19209e-07 1.8 -1.2
v 1.19209e-07 1.8 -1.3
v 0.1 0.8 -0.9
v 0.1 0.8 -1
v 0.1 0.9 -0.9
v 0.1 0.9 -1
v 0.1 1.1 -1.2
v 0.1 1.1 -1.3
v 0.1 1.2 -1.2
v 0.1 1.2 -1.3
v 0.1 1.2 -1.4
v 0.1 1.3 -1.3
v 0.1 1.3 -1.4
v 0.1 1.5 1.3
v 0.1 1.5 -1.4
v 0.1 1.7 1.3
v 0.1 1.7 1.1
v 0.1 1.7 -0.2
v 0.1 1.7 -0.3
v 0.1 1.7 -1.2
v 0.1 1.7 -1.4
v 0.1 1.8 1.1
v 0.1 1.8 -0.2
v 0.1 1.8 -0.3
v 0.1 1.8 -1.2
v 0.2 0.1 1.3
v 0.2 0.1 -1.4
v 0.2 0.3 1.3
v 0.2 0.3 -1.4
v 0.2 0.8 -0.9
v 0.2 0.8 -1
v 0.2 0.9 -0.9
v 0.2 0.9 -1
v 0.2 1.1 -1.2
v 0.2 1.1 -1.3
v 0.2 1.2 -1.2
v 0.2 1.2 -1.3
v 0.2 1.2 -1.4
v 0.2 1.3 -1.3
v 0.2 1.3 -1.4
v 0.2 1.5 1.3
v 0.2 1.5 -1.4
v -1.1 0.1 1.3
v -1.1 0.3 1.3
v -1.1 0.4 1.3
v -1.1 1.4 1.3
v -1.1 1.5 1.3
v -1 0.4 1.3
v -1 1.4 1.3
v -1 1.5 1.3
v -0.9 1.1 1.3
v -0.9 1.2 1.3
v -0.9 1.4 1.3
v -0.9 1.6 1.3
v -0.8 1.6 1.3
v -0.8 1.7 1.3
v -0.7 0.8 1.3
v -0.7 0.9 1.3
v -0.7 1.1 1.3
v -0.7 1.2 1.3
v -0.6 0.8 1.3
v -0.6 0.9 1.3
v -0.5 0.8 1.3
v -0.5 0.9 1.3
v -0.5 1.2 1.3
v -0.5 1.3 1.3
v -0.4 0.8 1.3
v -0.4 0.9 1.3
v -0.4 1.2 1.3
v -0.4 1.3 1.3
v -0.3 0.6 1.3
v -0.3 0.8 1.3
v -0.2 0.6 1.3
v -0.2 0.8 1.3
v -0.2 1.2 1.3
v -0.2 1.3 1.3
v -0.0999999 0.9 1.3
v -0.0999999 1 1.3
v -0.0999999 1.2 1.3
v -0.0999999 1.3 1.3
v 1.19209e-07 0.9 1.3
v 1.19209e-07 1 1.3
v 0.1 1.5 1.3
v 0.1 1.7 1.3
v 0.2 0.1 1.3
v 0.2 0.3 1.3
v 0.2 1.5 1.3
v -1 1.4 1.2
v -1 1.5 1.2
v -0.9 1.4 1.2
v -0.9 1.5 1.2
v -0.9 1.6 1.2
v -0.9 1.7 1.2
v -0.8 1.6 1.2
v -0.8 1.7 1.2
v -0.8 1.8 1.2
v 1.19209e-07 1.7 1.2
v 1.19209e-07 1.8 1.2
v 1.19209e-07 1.7 1.1
v 1.19209e-07 1.8 1.1
v 0.1 1.7 1.1
v 0.1 1.8 1.1
v -0.9 1.6 1
v -0.9 1.7 1
v -0.8 1.6 1
v -0.8 1.7 1
v -1.2 0.9 -1
v -1.2 1.5 -1
v -1.1 0.9 -1
v -1.1 1.5 -1
v 0.1 0.8 -1
v 0.1 0.9 -1
v 0.2 0.8 -1
v 0.2 0.9 -1
v -1.1 0.1 -1.1
v -1.1 0.3 -1.1
v -1 0.1 -1.1
v -1 0.3 -1.1
v 0.1 1.1 -1.3
v 0.1 1.2 -1.3
v 0.2 1.1 -1.3
v 0.2 1.2 -1.3
v -0.9 1.6 1.1
v -0.9 1.7 1.1
v -0.8 1.6 1.1
v -0.8 1.7 1.1
v 0.1 0.8 -0.9
v 0.1 0.9 -0.9
v 0.2 0.8 -0.9
v 0.2 0.9 -0.9
v -1.1 0.1 -1
v -1.1 0.3 -1
v -1 0.1 -1
v -1 0.3 -1
v -1.2 0.9 -1.1
v -1.2 1.5 -1.1
v -1.1 0.9 -1.1
v -1.1 1.5 -1.1
v 1.19209e-07 1.7 -1.2
v 1.19209e-07 1.8 -1.2
v 0.1 1.1 -1.2
v 0.1 1.2 -1.2
v 0.1 1.7 -1.2
v 0.1 1.8 -1.2
v 0.2 1.1 -1.2
v 0.2 1.2 -1.2
v -0.9 1.6 -1.3
v -0.9 1.7 -1.3
v -0.8 1.6 -1.3
v -0.8 1.7 -1.3
v -0.8 1.8 -1.3
v 1.19209e-07 1.7 -1.3
v 1.19209e-07 1.8 -1.3
v 0.1 1.2 -1.3
v 0.1 1.3 -1.3
v 0.2 1.2 -1.3
v 0.2 1.3 -1.3
v -1.1 0.1 -1.4
v -1.1 0.3 -1.4
v -1.1 0.7 -1.4
v -1.1 0.9 -1.4
v -1.1 1.2 -1.4
v -1.1 1.4 -1.4
v -1.1 1.5 -1.4
v -1 0.7 -1.4
v -1 0.9 -1.4
v -1 1.1 -1.4
v -1 1.2 -1.4
v -1 1.4 -1.4
v -0.9 0.8 -1.4
v -0.9 0.9 -1.4
v -0.9 1.1 -1.4
v -0.9 1.2 -1.4
v -0.9 1.5 -1.4
v -0.9 1.6 -1.4
v -0.8 0.4 -1.4
v -0.8 0.5 -1.4
v -0.8 0.6 -1.4
v -0.8 0.8 -1.4
v -0.8 0.9 -1.4
v -0.8 1.4 -1.4
v -0.8 1.5 -1.4
v -0.8 1.6 -1.4
v -0.8 1.7 -1.4
v -0.7 0.4 -1.4
v -0.7 0.5 -1.4
v -0.7 0.6 -1.4
v -0.7 0.8 -1.4
v -0.7 1.4 -1.4
v -0.7 1.5 -1.4
v -0.6 0.4 -1.4
v -0.6 0.5 -1.4
v -0.6 0.6 -1.4
v -0.6 0.8 -1.4
v -0.5 0.9 -1.4
v -0.5 1 -1.4
v -0.5 1.1 -1.4
v -0.5 1.2 -1.4
v -0.4 0.9 -1.4
v -0.4 1 -1.4
v -0.4 1.1 -1.4
v -0.4 1.2 -1.4
v -0.3 0.6 -1.4
v -0.3 0.7 -1.4
v -0.3 0.8 -1.4
v -0.3 1 -1.4
v -0.3 1.1 -1.4
v -0.2 0.6 -1.4
v -0.2 0.7 -1.4
v -0.2 0.8 -1.4
v -0.2 1 -1.4
v -0.2 1.1 -1.4
v -0.0999999 0.4 -1.4
v -0.0999999 0.6 -1.4
v 1.19209e-07 0.4 -1.4
v 1.19209e-07 0.6 -1.4
v 0.1 1.2 -1.4
v 0.1 1.3 -1.4
v 0.1 1.5 -1.4
v 0.1 1.7 -1.4
v 0.2 0.1 -1.4
v 0.2 0.3 -1.4
v 0.2 1.2 -1.4
v 0.2 1.3 -1.4
v 0.2 1.5 -1.4
v -0.8 0.4 -1.5
v -0.8 0.5 -1.5
v -0.7 0.4 -1.5
v -0.7 0.5 -1.5
v -0.3 0.7 -1.5
v -0.3 0.8 -1.5
v -0.2 0.7 -1.5
v -0.2 0.8 -1.5
v -1.1 0.1 1.3
v 0.2 0.1 1.3
v -1.1 0.1 -1
v -1 0.1 -1
v -1.1 0.1 -1.1
v -1 0.1 -1.1
v -1.1 0.1 -1.4
v 0.2 0.1 -1.4
v -1.1 0.3 -1
v -1 0.3 -1
v -1.1 0.3 -1.1
v -1 0.3 -1.1
v -0.8 0.4 -1.4
v -0.7 0.4 -1.4
v -0.8 0.4 -1.5
v -0.7 0.4 -1.5
v -0.3 0.7 -1.4
v -0.2 0.7 -1.4
v -0.3 0.7 -1.5
v -0.2 0.7 -1.5
v 0.1 0.9 -0.9
v 0.2 0.9 -0.9
v -1.2 0.9 -1
v -1.1 0.9 -1
v 0.1 0.9 -1
v 0.2 0.9 -1
v -1.2 0.9 -1.1
v -1.1 0.9 -1.1
v 0.1 1.2 -1.2
v 0.2 1.2 -1.2
v 0.1 1.2 -1.3
v 0.2 1.2 -1.3
v 0.1 1.3 -1.3
v 0.2 1.3 -1.3
v 0.1 1.3 -1.4
v 0.2 1.3 -1.4
v -0.8 0.5 -1.4
v -0.7 0.5 -1.4
v -0.8 0.5 -1.5
v -0.7 0.5 -1.5
v 0.1 0.8 -0.9
v 0.2 0.8 -0.9
v 0.1 0.8 -1
v 0.2 0.8 -1
v -0.3 0.8 -1.4
v -0.2 0.8 -1.4
v -0.3 0.8 -1.5
v -0.2 0.8 -1.5
v 0.1 1.1 -1.2
v 0.2 1.1 -1.2
v 0.1 1.1 -1.3
v 0.2 1.1 -1.3
v 0.1 1.2 -1.3
v 0.2 1.2 -1.3
v 0.1 1.2 -1.4
v 0.2 1.2 -1.4
v -1 1.4 1.3
v -0.9 1.4 1.3
v -1 1.4 1.2
v -0.9 1.4 1.2
v -1.1 1.5 1.3
v -1 1.5 1.3
v 0.1 1.5 1.3
v 0.2 1.5 1.3
v -1 1.5 1.2
v -0.9 1.5 1.2
v -0.9 1.5 0.6
v -0.9 1.5 0.4
v -1.1 1.5 0.3
v -1 1.5 0.3
v -1.1 1.5 -0.1
v -1 1.5 -0.1
v -1.1 1.5 -0.2
v -1 1.5 -0.2
v -1.1 1.5 -0.6
v -1 1.5 -0.6
v -1.1 1.5 -0.7
v -1 1.5 -0.7
v -1.1 1.5 -0.9
v -1 1.5 -0.9
v -1.2 1.5 -1
v -1.1 1.5 -1
v -1 1.5 -1
v -1.2 1.5 -1.1
v -1.1 1.5 -1.1
v -1.1 1.5 -1.4
v -0.9 1.5 -1.4
v 0.1 1.5 -1.4
v 0.2 1.5 -1.4
v -0.9 1.6 1.3
v -0.8 1.6 1.3
v -0.9 1.6 1.2
v -0.8 1.6 1.2
v -0.9 1.6 1.1
v -0.8 1.6 1.1
v -0.9 1.6 1
v -0.8 1.6 1
v -0.9 1.6 -1.3
v -0.8 1.6 -1.3
v -0.9 1.6 -1.4
v -0.8 1.6 -1.4
v -0.8 1.7 1.3
v 0.1 1.7 1.3
v -0.9 1.7 1.2
v -0.8 1.7 1.2
v 1.19209e-07 1.7 1.2
v -0.9 1.7 1.1
v -0.8 1.7 1.1
v 1.19209e-07 1.7 1.1
v 0.1 1.7 1.1
v -0.9 1.7 1
v -0.8 1.7 1
v -0.9 1.7 0.6
v -0.8 1.7 0.6
v -0.9 1.7 0.4
v -0.8 1.7 0.4
v -0.8 1.7 -0.2
v -0.8 1.7 -0.3
v -0.9 1.7 -0.5
v -0.8 1.7 -0.5
v -0.9 1.7 -0.6
v -0.8 1.7 -0.6
v -0.8 1.7 -1.1
v -0.8 1.7 -1.2
v 1.19209e-07 1.7 -1.2
v 0.1 1.7 -1.2
v -0.9 1.7 -1.3
v -0.8 1.7 -1.3
v 1.19209e-07 1.7 -1.3
v -0.8 1.7 -1.4
v 0.1 1.7 -1.4
v -0.8 1.8 1.2
v 1.19209e-07 1.8 1.2
v 1.19209e-07 1.8 1.1
v 0.1 1.8 1.1
v -0.8 1.8 0.6
v -0.6 1.8 0.6
v -0.8 1.8 0.4
v -0.6 1.8 0.4
v -0.8 1.8 -0.2
v 0.1 1.8 -0.2
v -0.8 1.8 -0.3
v 0.1 1.8 -0.3
v -0.6 1.8 -0.6
v -0.0999999 1.8 -0.6
v -0.6 1.8 -0.7
v -0.4 1.8 -0.7
v -0.7 1.8 -0.8
v -0.5 1.8 -0.8
v -0.4 1.8 -0.8
v -0.0999999 1.8 -0.8
v -0.8 1.8 -1.1
v -0.7 1.8 -1.1
v -0.5 1.8 -1.1
v -0.4 1.8 -1.1
v -0.8 1.8 -1.2
v -0.7 1.8 -1.2
v -0.5 1.8 -1.2
v -0.4 1.8 -1.2
v 1.19209e-07 1.8 -1.2
v 0.1 1.8 -1.2
v -0.8 1.8 -1.3
v 1.19209e-07 1.8 -1.3

# faces
f 3/7/1 2/7/1 1/7/1
f 4/7/1 2/7/1 3/7/1
f 9/4/1 6/4/1 5/4/1
f 10/4/1 6/4/1 9/4/1
f 11/4/1 8/4/1 7/4/1
f 12/4/1 8/4/1 11/4/1
f 13/5/1 10/5/1 9/5/1
f 14/5/1 10/5/1 13/5/1
f 15/5/1 10/5/1 14/5/1
f 16/5/1 10/5/1 15/5/1
f 17/5/1 10/5/1 16/5/1
f 18/5/1 10/5/1 17/5/1
f 19/5/1 17/5/1 16/5/1
f 20/6/1 18/6/1 17/6/1
f 20/5/1 17/5/1 19/5/1
f 21/5/1 10/5/1 18/5/1
f 21/6/1 18/6/1 20/6/1
f 22/5/1 15/5/1 14/5/1
f 22/6/1 16/6/1 15/6/1
f 23/5/1 19/5/1 16/5/1
f 23/6/1 16/6/1 22/6/1
f 24/5/1 19/5/1 23/5/1
f 25/5/1 19/5/1 24/5/1
f 26/5/1 19/5/1 25/5/1
f 27/5/1 22/5/1 14/5/1
f 27/5/1 23/5/1 22/5/1
f 28/5/1 23/5/1 27/5/1
f 29/5/1 19/5/1 26/5/1
f 29/6/1 26/6/1 25/6/1
f 30/4/1 21/4/1 20/4/1
f 30/5/1 19/5/1 29/5/1
f 30/4/1 20/4/1 19/4/1
f 31/5/1 10/5/1 21/5/1
f 31/4/1 21/4/1 30/4/1
f 32/5/1 10/5/1 31/5/1
f 33/5/1 10/5/1 32/5/1
f 34/3/1 11/3/1 10/3/1
f 34/5/1 10/5/1 33/5/1
f 35/5/1 12/5/1 11/5/1
f 35/3/1 11/3/1 34/3/1
f 36/5/1 12/5/1 35/5/1
f 37/6/1 30/6/1 29/6/1
f 37/6/1 29/6/1 25/6/1
f 37/5/1 25/5/1 24/5/1
f 38/4/1 31/4/1 30/4/1
f 38/6/1 30/6/1 37/6/1
f 39/6/1 32/6/1 31/6/1
f 39/4/1 31/4/1 38/4/1
f 40/5/1 33/5/1 32/5/1
f 40/6/1 32/6/1 39/6/1
f 41/5/1 33/5/1 40/5/1
f 42/5/1 27/5/1 14/5/1
f 42/6/1 28/6/1 27/6/1
f 43/5/1 23/5/1 28/5/1
f 43/6/1 28/6/1 42/6/1
f 44/4/1 39/4/1 38/4/1
f 45/5/1 40/5/1 39/5/1
f 45/4/1 39/4/1 44/4/1
f 46/4/1 41/4/1 40/4/1
f 46/5/1 40/5/1 45/5/1
f 47/5/1 33/5/1 41/5/1
f 47/4/1 41/4/1 46/4/1
f 48/7/1 34/7/1 33/7/1
f 48/7/1 36/7/1 35/7/1
f 48/7/1 35/7/1 34/7/1
f 49/7/1 36/7/1 48/7/1
f 50/7/1 36/7/1 49/7/1
f 51/5/1 23/5/1 43/5/1
f 51/4/1 24/4/1 23/4/1
f 51/5/1 43/5/1 42/5/1
f 52/5/1 37/5/1 24/5/1
f 52/4/1 24/4/1 51/4/1
f 52/5/1 38/5/1 37/5/1
f 53/4/1 44/4/1 38/4/1
f 53/5/1 38/5/1 52/5/1
f 54/6/1 45/6/1 44/6/1
f 54/4/1 44/4/1 53/4/1
f 55/5/1 47/5/1 46/5/1
f 55/6/1 45/6/1 54/6/1
f 55/5/1 46/5/1 45/5/1
f 56/7/1 14/7/1 13/7/1
f 56/5/1 54/5/1 53/5/1
f 56/5/1 55/5/1 54/5/1
f 56/5/1 51/5/1 42/5/1
f 56/5/1 52/5/1 51/5/1
f 56/5/1 42/5/1 14/5/1
f 56/5/1 53/5/1 52/5/1
f 57/5/1 33/5/1 47/5/1
f 57/5/1 55/5/1 56/5/1
f 57/5/1 47/5/1 55/5/1
f 57/7/1 48/7/1 33/7/1
f 58/5/1 50/5/1 49/5/1
f 59/5/1 50/5/1 58/5/1
f 60/7/1 57/7/1 56/7/1
f 61/7/1 57/7/1 60/7/1
f 62/7/1 57/7/1 61/7/1
f 63/7/1 57/7/1 62/7/1
f 64/7/1 56/7/1 13/7/1
f 64/7/1 60/7/1 56/7/1
f 65/5/1 61/5/1 60/5/1
f 65/7/1 60/7/1 64/7/1
f 66/7/1 57/7/1 63/7/1
f 66/2/1 63/2/1 62/2/1
f 67/7/1 57/7/1 66/7/1
f 68/7/1 57/7/1 67/7/1
f 69/7/1 48/7/1 57/7/1
f 69/7/1 57/7/1 68/7/1
f 70/5/1 58/5/1 49/5/1
f 70/4/1 59/4/1 58/4/1
f 71/4/1 59/4/1 70/4/1
f 72/5/1 65/5/1 64/5/1
f 73/5/1 61/5/1 65/5/1
f 73/5/1 65/5/1 72/5/1
f 73/1/1 62/1/1 61/1/1
f 74/2/1 66/2/1 62/2/1
f 74/1/1 62/1/1 73/1/1
f 75/5/1 67/5/1 66/5/1
f 75/2/1 66/2/1 74/2/1
f 76/4/1 68/4/1 67/4/1
f 76/5/1 67/5/1 75/5/1
f 77/5/1 69/5/1 68/5/1
f 77/4/1 68/4/1 76/4/1
f 78/7/1 48/7/1 69/7/1
f 78/5/1 69/5/1 77/5/1
f 79/7/1 48/7/1 78/7/1
f 80/5/1 71/5/1 70/5/1
f 80/5/1 70/5/1 49/5/1
f 81/5/1 71/5/1 80/5/1
f 84/4/1 83/4/1 82/4/1
f 85/4/1 83/4/1 84/4/1
f 88/5/1 87/5/1 86/5/1
f 92/5/1 88/5/1 86/5/1
f 92/5/1 89/5/1 88/5/1
f 93/5/1 89/5/1 92/5/1
f 94/5/1 89/5/1 93/5/1
f 95/5/1 89/5/1 94/5/1
f 96/5/1 91/5/1 90/5/1
f 97/5/1 91/5/1 96/5/1
f 98/5/1 91/5/1 97/5/1
f 99/5/1 91/5/1 98/5/1
f 100/5/1 94/5/1 93/5/1
f 101/5/1 94/5/1 100/5/1
f 102/5/1 89/5/1 95/5/1
f 103/6/1 90/6/1 89/6/1
f 103/5/1 89/5/1 102/5/1
f 104/5/1 96/5/1 90/5/1
f 104/6/1 90/6/1 103/6/1
f 105/6/1 97/6/1 96/6/1
f 105/5/1 96/5/1 104/5/1
f 106/5/1 98/5/1 97/5/1
f 106/6/1 97/6/1 105/6/1
f 107/5/1 98/5/1 106/5/1
f 110/6/1 109/6/1 108/6/1
f 111/6/1 109/6/1 110/6/1
f 118/5/1 113/5/1 112/5/1
f 119/5/1 113/5/1 118/5/1
f 120/5/1 115/5/1 114/5/1
f 121/5/1 115/5/1 120/5/1
f 130/5/1 117/5/1 116/5/1
f 131/5/1 117/5/1 130/5/1
f 132/5/1 120/5/1 119/5/1
f 132/5/1 121/5/1 120/5/1
f 132/5/1 122/5/1 121/5/1
f 133/6/1 123/6/1 122/6/1
f 133/5/1 122/5/1 132/5/1
f 134/5/1 124/5/1 123/5/1
f 134/6/1 123/6/1 133/6/1
f 135/6/1 125/6/1 124/6/1
f 135/5/1 124/5/1 134/5/1
f 136/5/1 128/5/1 127/5/1
f 136/6/1 125/6/1 135/6/1
f 136/5/1 126/5/1 125/5/1
f 136/5/1 127/5/1 126/5/1
f 137/3/1 129/3/1 128/3/1
f 137/5/1 128/5/1 136/5/1
f 138/5/1 130/5/1 129/5/1
f 138/3/1 129/3/1 137/3/1
f 139/5/1 130/5/1 138/5/1
f 142/6/1 141/6/1 140/6/1
f 143/6/1 141/6/1 142/6/1
f 144/5/2 145/5/2 146/5/2
f 146/5/2 145/5/2 147/5/2
f 148/6/2 149/6/2 150/6/2
f 150/6/2 149/6/2 151/6/2
f 152/6/2 153/6/2 154/6/2
f 154/6/2 153/6/2 155/6/2
f 156/5/2 157/5/2 160/5/2
f 160/5/2 157/5/2 161/5/2
f 158/5/2 159/5/2 162/5/2
f 162/5/2 159/5/2 163/5/2
f 164/5/2 165/5/2 166/5/2
f 166/5/2 165/5/2 167/5/2
f 168/5/2 169/5/2 170/5/2
f 170/5/2 169/5/2 171/5/2
f 171/5/2 172/5/2 173/5/2
f 173/5/2 172/5/2 174/5/2
f 175/5/2 176/5/2 177/5/2
f 177/5/2 176/5/2 178/5/2
f 178/5/2 176/5/2 179/5/2
f 179/5/2 176/5/2 180/5/2
f 180/5/2 176/5/2 181/5/2
f 181/5/2 176/5/2 182/5/2
f 178/5/2 179/5/2 183/5/2
f 179/6/2 180/6/2 184/6/2
f 183/5/2 179/5/2 184/5/2
f 180/5/2 181/5/2 185/5/2
f 184/6/2 180/6/2 185/6/2
f 185/5/2 181/5/2 186/5/2
f 187/4/2 188/4/2 189/4/2
f 189/4/2 188/4/2 190/4/2
f 189/5/2 190/5/2 191/5/2
f 191/5/2 190/5/2 192/5/2
f 189/5/2 191/5/2 193/5/2
f 192/5/2 190/5/2 194/5/2
f 194/5/2 190/5/2 195/5/2
f 193/5/2 194/5/2 195/5/2
f 195/5/2 190/5/2 196/5/2
f 193/5/2 195/5/2 197/5/2
f 196/5/2 190/5/2 198/5/2
f 198/5/2 190/5/2 199/5/2
f 197/5/2 198/5/2 200/5/2
f 189/5/2 193/5/2 202/5/2
f 200/5/2 201/5/2 202/5/2
f 197/5/2 200/5/2 202/5/2
f 193/5/2 197/5/2 202/5/2
f 202/5/2 201/5/2 203/5/2
f 209/5/3 206/5/3 205/5/3
f 209/7/3 207/7/3 206/7/3
f 210/5/3 208/5/3 207/5/3
f 210/7/3 207/7/3 209/7/3
f 211/5/3 208/5/3 210/5/3
f 212/5/3 210/5/3 209/5/3
f 213/5/3 210/5/3 212/5/3
f 214/5/3 210/5/3 213/5/3
f 216/5/3 214/5/3 213/5/3
f 216/5/3 215/5/3 214/5/3
f 218/5/3 212/5/3 209/5/3
f 219/5/3 212/5/3 218/5/3
f 220/6/3 213/6/3 212/6/3
f 220/5/3 212/5/3 219/5/3
f 221/5/3 217/5/3 216/5/3
f 221/6/3 213/6/3 220/6/3
f 221/5/3 216/5/3 213/5/3
f 222/6/3 219/6/3 218/6/3
f 222/5/3 218/5/3 209/5/3
f 223/5/3 220/5/3 219/5/3
f 223/6/3 219/6/3 222/6/3
f 223/5/3 221/5/3 220/5/3
f 224/5/3 222/5/3 209/5/3
f 224/5/3 223/5/3 222/5/3
f 225/5/3 221/5/3 223/5/3
f 225/5/3 223/5/3 224/5/3
f 226/5/3 217/5/3 221/5/3
f 226/5/3 221/5/3 225/5/3
f 227/5/3 217/5/3 226/5/3
f 228/6/3 225/6/3 224/6/3
f 228/5/3 224/5/3 209/5/3
f 229/5/3 226/5/3 225/5/3
f 229/6/3 225/6/3 228/6/3
f 230/6/3 227/6/3 226/6/3
f 230/5/3 226/5/3 229/5/3
f 231/5/3 217/5/3 227/5/3
f 231/6/3 227/6/3 230/6/3
f 232/5/3 230/5/3 229/5/3
f 232/5/3 229/5/3 228/5/3
f 232/5/3 231/5/3 230/5/3
f 232/5/3 228/5/3 209/5/3
f 233/5/3 231/5/3 232/5/3
f 234/5/3 232/5/3 209/5/3
f 234/6/3 233/6/3 232/6/3
f 235/5/3 231/5/3 233/5/3
f 235/6/3 233/6/3 234/6/3
f 236/5/3 231/5/3 235/5/3
f 237/5/3 217/5/3 231/5/3
f 237/5/3 231/5/3 236/5/3
f 238/5/3 236/5/3 235/5/3
f 238/5/3 235/5/3 234/5/3
f 239/5/3 236/5/3 238/5/3
f 240/6/3 237/6/3 236/6/3
f 240/5/3 236/5/3 239/5/3
f 241/5/3 217/5/3 237/5/3
f 241/6/3 237/6/3 240/6/3
f 242/6/3 239/6/3 238/6/3
f 242/5/3 238/5/3 234/5/3
f 243/5/3 240/5/3 239/5/3
f 243/6/3 239/6/3 242/6/3
f 243/5/3 241/5/3 240/5/3
f 244/5/3 217/5/3 241/5/3
f 244/5/3 241/5/3 243/5/3
f 244/5/3 243/5/3 242/5/3
f 245/5/3 217/5/3 244/5/3
f 246/4/3 205/4/3 204/4/3
f 247/5/3 209/5/3 205/5/3
f 247/4/3 205/4/3 246/4/3
f 247/5/3 242/5/3 234/5/3
f 247/5/3 244/5/3 242/5/3
f 247/5/3 234/5/3 209/5/3
f 248/5/3 244/5/3 247/5/3
f 251/5/3 250/5/3 249/5/3
f 252/5/3 250/5/3 251/5/3
f 255/5/3 254/5/3 253/5/3
f 256/5/3 254/5/3 255/5/3
f 258/5/3 257/5/3 256/5/3
f 259/5/3 257/5/3 258/5/3
f 262/5/3 261/5/3 260/5/3
f 263/5/3 261/5/3 262/5/3
f 266/5/3 265/5/3 264/5/3
f 267/5/3 265/5/3 266/5/3
f 270/7/3 269/7/3 268/7/3
f 271/7/3 269/7/3 270/7/3
f 274/5/3 273/5/3 272/5/3
f 275/5/3 273/5/3 274/5/3
f 278/4/3 277/4/3 276/4/3
f 279/4/3 277/4/3 278/4/3
f 282/5/3 281/5/3 280/5/3
f 283/5/3 281/5/3 282/5/3
f 284/5/4 285/5/4 286/5/4
f 286/5/4 285/5/4 287/5/4
f 288/5/4 289/5/4 290/5/4
f 290/5/4 289/5/4 291/5/4
f 292/4/4 293/4/4 294/4/4
f 294/4/4 293/4/4 295/4/4
f 296/7/4 297/7/4 298/7/4
f 298/7/4 297/7/4 299/7/4
f 300/5/4 301/5/4 304/5/4
f 304/5/4 301/5/4 305/5/4
f 302/5/4 303/5/4 306/5/4
f 306/5/4 303/5/4 307/5/4
f 308/5/4 309/5/4 310/5/4
f 310/5/4 309/5/4 311/5/4
f 311/5/4 312/5/4 313/5/4
f 313/5/4 312/5/4 314/5/4
f 315/5/4 316/5/4 317/5/4
f 317/5/4 316/5/4 318/5/4
f 320/5/4 321/5/4 326/5/4
f 321/7/4 322/7/4 326/7/4
f 322/5/4 323/5/4 327/5/4
f 326/7/4 322/7/4 327/7/4
f 327/5/4 323/5/4 328/5/4
f 323/4/4 324/4/4 329/4/4
f 328/5/4 323/5/4 329/5/4
f 324/5/4 325/5/4 330/5/4
f 329/4/4 324/4/4 330/4/4
f 327/5/4 328/5/4 331/5/4
f 326/5/4 327/5/4 331/5/4
f 331/5/4 328/5/4 332/5/4
f 328/6/4 329/6/4 333/6/4
f 332/5/4 328/5/4 333/5/4
f 329/5/4 330/5/4 334/5/4
f 333/6/4 329/6/4 334/6/4
f 330/5/4 325/5/4 335/5/4
f 334/5/4 330/5/4 335/5/4
f 320/5/4 326/5/4 337/5/4
f 326/5/4 331/5/4 337/5/4
f 337/5/4 331/5/4 338/5/4
f 338/5/4 331/5/4 339/5/4
f 331/6/4 332/6/4 340/6/4
f 339/5/4 331/5/4 340/5/4
f 333/5/4 334/5/4 341/5/4
f 340/6/4 332/6/4 341/6/4
f 335/5/4 336/5/4 341/5/4
f 332/5/4 333/5/4 341/5/4
f 334/5/4 335/5/4 341/5/4
f 341/5/4 336/5/4 342/5/4
f 342/5/4 336/5/4 343/5/4
f 343/5/4 336/5/4 344/5/4
f 320/5/4 337/5/4 346/5/4
f 338/6/4 339/6/4 347/6/4
f 339/5/4 340/5/4 348/5/4
f 340/5/4 341/5/4 348/5/4
f 347/6/4 339/6/4 348/6/4
f 341/5/4 342/5/4 348/5/4
f 348/5/4 342/5/4 349/5/4
f 342/6/4 343/6/4 350/6/4
f 349/5/4 342/5/4 350/5/4
f 344/5/4 345/5/4 351/5/4
f 350/6/4 343/6/4 351/6/4
f 343/5/4 344/5/4 351/5/4
f 320/5/4 346/5/4 352/5/4
f 346/6/4 347/6/4 352/6/4
f 347/5/4 348/5/4 353/5/4
f 352/6/4 347/6/4 353/6/4
f 348/6/4 349/6/4 354/6/4
f 353/5/4 348/5/4 354/5/4
f 350/5/4 351/5/4 355/5/4
f 354/6/4 349/6/4 355/6/4
f 349/5/4 350/5/4 355/5/4
f 353/5/4 354/5/4 356/5/4
f 355/5/4 351/5/4 356/5/4
f 354/5/4 355/5/4 356/5/4
f 352/5/4 353/5/4 356/5/4
f 356/5/4 351/5/4 357/5/4
f 357/5/4 351/5/4 358/5/4
f 358/5/4 351/5/4 359/5/4
f 352/5/4 356/5/4 360/5/4
f 356/6/4 357/6/4 360/6/4
f 357/5/4 358/5/4 361/5/4
f 360/6/4 357/6/4 361/6/4
f 358/6/4 359/6/4 362/6/4
f 361/5/4 358/5/4 362/5/4
f 359/5/4 351/5/4 363/5/4
f 362/6/4 359/6/4 363/6/4
f 361/5/4 362/5/4 364/5/4
f 360/5/4 361/5/4 364/5/4
f 362/5/4 363/5/4 364/5/4
f 352/5/4 360/5/4 364/5/4
f 364/5/4 363/5/4 365/5/4
f 365/5/4 363/5/4 366/5/4
f 366/5/4 363/5/4 367/5/4
f 367/5/4 363/5/4 368/5/4
f 352/5/4 364/5/4 369/5/4
f 364/6/4 365/6/4 369/6/4
f 369/6/4 365/6/4 370/6/4
f 366/5/4 367/5/4 371/5/4
f 367/6/4 368/6/4 372/6/4
f 371/5/4 367/5/4 372/5/4
f 368/5/4 363/5/4 373/5/4
f 372/6/4 368/6/4 373/6/4
f 320/5/4 352/5/4 374/5/4
f 371/5/4 372/5/4 374/5/4
f 372/5/4 373/5/4 374/5/4
f 370/5/4 371/5/4 374/5/4
f 352/5/4 369/5/4 374/5/4
f 369/5/4 370/5/4 374/5/4
f 374/5/4 373/5/4 375/5/4
f 320/5/4 374/5/4 376/5/4
f 374/6/4 375/6/4 376/6/4
f 375/5/4 373/5/4 377/5/4
f 376/6/4 375/6/4 377/6/4
f 373/5/4 363/5/4 378/5/4
f 377/5/4 373/5/4 378/5/4
f 376/5/4 377/5/4 378/5/4
f 363/5/4 351/5/4 378/5/4
f 378/5/4 351/5/4 379/5/4
f 351/5/4 345/5/4 380/5/4
f 379/5/4 351/5/4 380/5/4
f 380/5/4 345/5/4 381/5/4
f 319/4/4 320/4/4 382/4/4
f 320/5/4 376/5/4 383/5/4
f 382/4/4 320/4/4 383/4/4
f 376/5/4 378/5/4 383/5/4
f 383/5/4 378/5/4 384/5/4
f 379/5/4 380/5/4 385/5/4
f 385/5/4 380/5/4 386/5/4
f 387/6/4 388/6/4 389/6/4
f 389/6/4 388/6/4 390/6/4
f 391/6/4 392/6/4 393/6/4
f 393/6/4 392/6/4 394/6/4
f 397/4/5 396/4/5 395/4/5
f 398/4/5 396/4/5 397/4/5
f 400/4/5 396/4/5 398/4/5
f 401/4/5 400/4/5 399/4/5
f 402/4/5 396/4/5 400/4/5
f 402/4/5 400/4/5 401/4/5
f 405/3/5 404/3/5 403/3/5
f 406/3/5 404/3/5 405/3/5
f 409/6/5 408/6/5 407/6/5
f 410/6/5 408/6/5 409/6/5
f 413/6/5 412/6/5 411/6/5
f 414/6/5 412/6/5 413/6/5
f 419/5/5 416/5/5 415/5/5
f 420/5/5 416/5/5 419/5/5
f 421/7/5 418/7/5 417/7/5
f 422/7/5 418/7/5 421/7/5
f 425/5/5 424/5/5 423/5/5
f 426/5/5 424/5/5 425/5/5
f 429/5/5 428/5/5 427/5/5
f 430/5/5 428/5/5 429/5/5
f 431/6/6 432/6/6 433/6/6
f 433/6/6 432/6/6 434/6/6
f 435/5/6 436/5/6 437/5/6
f 437/5/6 436/5/6 438/5/6
f 439/6/6 440/6/6 441/6/6
f 441/6/6 440/6/6 442/6/6
f 443/5/6 444/5/6 445/5/6
f 445/5/6 444/5/6 446/5/6
f 447/5/6 448/5/6 449/5/6
f 449/5/6 448/5/6 450/5/6
f 451/5/6 452/5/6 453/5/6
f 453/5/6 452/5/6 454/5/6
f 455/5/6 456/5/6 459/5/6
f 459/5/6 460/5/6 461/5/6
f 459/5/6 461/5/6 462/5/6
f 455/5/6 459/5/6 463/5/6
f 459/5/6 462/5/6 463/5/6
f 463/5/6 462/5/6 464/5/6
f 463/1/6 464/1/6 465/1/6
f 464/5/6 462/5/6 466/5/6
f 465/1/6 464/1/6 466/1/6
f 465/2/6 466/2/6 467/2/6
f 466/5/6 462/5/6 468/5/6
f 467/2/6 466/2/6 468/2/6
f 467/5/6 468/5/6 469/5/6
f 468/5/6 462/5/6 470/5/6
f 469/5/6 468/5/6 470/5/6
f 469/4/6 470/4/6 471/4/6
f 470/5/6 462/5/6 472/5/6
f 471/4/6 470/4/6 472/4/6
f 471/5/6 472/5/6 473/5/6
f 472/5/6 462/5/6 474/5/6
f 473/5/6 472/5/6 474/5/6
f 473/7/6 474/7/6 476/7/6
f 474/5/6 462/5/6 477/5/6
f 476/7/6 474/7/6 477/7/6
f 475/7/6 476/7/6 478/7/6
f 476/5/6 477/5/6 479/5/6
f 478/7/6 476/7/6 479/7/6
f 479/5/6 477/5/6 480/5/6
f 477/5/6 462/5/6 481/5/6
f 480/5/6 477/5/6 481/5/6
f 457/5/6 458/5/6 482/5/6
f 482/5/6 458/5/6 483/5/6
f 484/5/6 485/5/6 486/5/6
f 486/5/6 485/5/6 487/5/6
f 488/5/6 489/5/6 490/5/6
f 490/5/6 489/5/6 491/5/6
f 492/5/6 493/5/6 494/5/6
f 494/5/6 493/5/6 495/5/6
f 496/5/6 497/5/6 499/5/6
f 499/5/6 497/5/6 500/5/6
f 498/5/6 499/5/6 501/5/6
f 501/5/6 499/5/6 502/5/6
f 500/5/6 497/5/6 503/5/6
f 503/5/6 497/5/6 504/5/6
f 505/5/6 506/5/6 507/5/6
f 507/5/6 506/5/6 508/5/6
f 507/6/6 508/6/6 509/6/6
f 509/6/6 508/6/6 510/6/6
f 509/5/6 510/5/6 511/5/6
f 509/5/6 511/5/6 512/5/6
f 509/5/6 512/5/6 513/5/6
f 513/5/6 512/5/6 514/5/6
f 513/6/6 514/6/6 515/6/6
f 515/6/6 514/6/6 516/6/6
f 515/5/6 516/5/6 517/5/6
f 515/5/6 517/5/6 518/5/6
f 515/5/6 518/5/6 521/5/6
f 521/5/6 518/5/6 522/5/6
f 519/5/6 520/5/6 523/5/6
f 522/5/6 523/5/6 524/5/6
f 523/5/6 520/5/6 525/5/6
f 524/5/6 523/5/6 525/5/6
f 526/5/6 527/5/6 528/5/6
f 526/5/6 528/5/6 530/5/6
f 528/5/6 529/5/6 530/5/6
f 530/5/6 529/5/6 531/5/6
f 530/6/6 531/6/6 532/6/6
f 531/5/6 529/5/6 533/5/6
f 532/6/6 531/6/6 533/6/6
f 532/5/6 533/5/6 534/5/6
f 533/5/6 529/5/6 535/5/6
f 534/5/6 533/5/6 535/5/6
f 534/6/6 535/6/6 536/6/6
f 536/6/6 535/6/6 537/6/6
f 536/5/6 537/5/6 538/5/6
f 538/5/6 537/5/6 539/5/6
f 536/5/6 538/5/6 540/5/6
f 538/4/6 539/4/6 540/4/6
f 540/4/6 539/4/6 541/4/6
f 536/5/6 540/5/6 542/5/6
f 540/5/6 541/5/6 542/5/6
f 542/5/6 541/5/6 543/5/6
f 541/4/6 539/4/6 544/4/6
f 543/5/6 541/5/6 544/5/6
f 539/5/6 537/5/6 545/5/6
f 544/4/6 539/4/6 545/4/6
f 536/5/6 542/5/6 546/5/6
f 542/4/6 543/4/6 547/4/6
f 546/5/6 542/5/6 547/5/6
f 543/5/6 544/5/6 548/5/6
f 547/4/6 543/4/6 548/4/6
f 544/5/6 545/5/6 548/5/6
f 548/5/6 545/5/6 549/5/6
f 546/3/6 547/3/6 550/3/6
f 547/5/6 548/5/6 551/5/6
f 550/3/6 547/3/6 551/3/6
f 548/4/6 549/4/6 552/4/6
f 551/5/6 548/5/6 552/5/6
f 549/5/6 545/5/6 553/5/6
f 552/4/6 549/4/6 553/4/6
f 545/5/6 537/5/6 554/5/6
f 553/5/6 545/5/6 554/5/6
f 554/5/6 537/5/6 555/5/6
f 551/5/6 552/5/6 556/5/6
f 552/5/6 553/5/6 556/5/6
f 553/5/6 554/5/6 556/5/6
f 550/5/6 551/5/6 556/5/6
f 556/5/6 554/5/6 557/5/6
