# MagicaVoxel @ Ephtracy

# group
o 

# material
mtllib untitled.mtl
usemtl palette

# normals
vn -1 0 0
vn 1 0 0
vn 0 0 1
vn 0 0 -1
vn 0 -1 0
vn 0 1 0

# texcoords
vt 0.232422 0.5
vt 0.892578 0.5
vt 0.958984 0.5
vt 0.962891 0.5

# verts
v -0.9 0.4 -2.98023e-08
v -0.9 0.4 -0.1
v -0.9 0.6 -2.98023e-08
v -0.9 0.6 -0.1
v -0.8 0.3 -2.98023e-08
v -0.8 0.3 -0.1
v -0.8 0.4 -2.98023e-08
v -0.8 0.4 -0.1
v -0.7 0.1 -2.98023e-08
v -0.7 0.1 -0.1
v -0.7 0.3 -2.98023e-08
v -0.7 0.3 -0.1
v -0.7 0.4 -2.98023e-08
v -0.7 0.4 -0.1
v -0.7 0.5 -2.98023e-08
v -0.7 0.5 -0.1
v -0.6 0 -2.98023e-08
v -0.6 0 -0.1
v -0.6 0.1 0.1
v -0.6 0.1 -2.98023e-08
v -0.6 0.1 -0.1
v -0.6 0.1 -0.2
v -0.6 0.3 0.2
v -0.6 0.3 0.1
v -0.6 0.3 -2.98023e-08
v -0.6 0.3 -0.1
v -0.6 0.3 -0.2
v -0.6 0.3 -0.3
v -0.6 0.4 0.2
v -0.6 0.4 0.1
v -0.6 0.4 -2.98023e-08
v -0.6 0.4 -0.1
v -0.6 0.4 -0.2
v -0.6 0.4 -0.3
v -0.6 0.5 0.1
v -0.6 0.5 -2.98023e-08
v -0.6 0.5 -0.1
v -0.6 0.5 -0.2
v -0.6 0.6 -2.98023e-08
v -0.6 0.6 -0.1
v -0.6 0.7 -2.98023e-08
v -0.6 0.7 -0.1
v -0.5 0.1 0.2
v -0.5 0.1 0.1
v -0.5 0.1 -0.2
v -0.5 0.1 -0.3
v -0.5 0.2 0.2
v -0.5 0.2 0.1
v -0.5 0.2 -0.2
v -0.5 0.2 -0.3
v -0.5 0.3 0.2
v -0.5 0.3 0.1
v -0.5 0.3 -0.2
v -0.5 0.3 -0.3
v -0.5 0.4 0.2
v -0.5 0.4 0.1
v -0.5 0.4 -0.2
v -0.5 0.4 -0.3
v -0.5 0.5 0.2
v -0.5 0.5 0.1
v -0.5 0.5 -2.98023e-08
v -0.5 0.5 -0.1
v -0.5 0.5 -0.2
v -0.5 0.5 -0.3
v -0.5 0.6 0.1
v -0.5 0.6 -2.98023e-08
v -0.5 0.6 -0.1
v -0.5 0.6 -0.2
v -0.5 0.7 0.1
v -0.5 0.7 -2.98023e-08
v -0.5 0.7 -0.1
v -0.5 0.7 -0.2
v -0.5 0.9 -2.98023e-08
v -0.5 0.9 -0.1
v -0.5 1 -2.98023e-08
v -0.5 1 -0.1
v -0.4 0.2 0.3
v -0.4 0.2 0.2
v -0.4 0.2 -0.3
v -0.4 0.2 -0.4
v -0.4 0.3 0.2
v -0.4 0.3 -0.3
v -0.4 0.5 0.3
v -0.4 0.5 0.2
v -0.4 0.5 0.1
v -0.4 0.5 -0.2
v -0.4 0.5 -0.3
v -0.4 0.5 -0.4
v -0.4 0.6 0.2
v -0.4 0.6 0.1
v -0.4 0.6 -0.2
v -0.4 0.6 -0.3
v -0.4 0.7 0.1
v -0.4 0.7 -2.98023e-08
v -0.4 0.7 -0.1
v -0.4 0.7 -0.2
v -0.4 0.8 0.1
v -0.4 0.8 -2.98023e-08
v -0.4 0.8 -0.1
v -0.4 0.8 -0.2
v -0.4 0.9 -2.98023e-08
v -0.4 0.9 -0.1
v -0.4 1 -2.98023e-08
v -0.4 1 -0.1
v -0.4 1.1 -2.98023e-08
v -0.4 1.1 -0.1
v 0.2 0.4 -2.98023e-08
v 0.2 0.4 -0.1
v 0.2 0.5 -2.98023e-08
v 0.2 0.5 -0.1
v -0.8 0.4 -2.98023e-08
v -0.8 0.4 -0.1
v -0.8 0.5 -2.98023e-08
v -0.8 0.5 -0.1
v -0.2 0.2 0.3
v -0.2 0.2 0.2
v -0.2 0.2 -0.3
v -0.2 0.2 -0.4
v -0.2 0.5 0.3
v -0.2 0.5 0.2
v -0.2 0.5 0.1
v -0.2 0.5 -0.2
v -0.2 0.5 -0.3
v -0.2 0.5 -0.4
v -0.2 0.6 0.2
v -0.2 0.6 0.1
v -0.2 0.6 -0.2
v -0.2 0.6 -0.3
v -0.2 0.7 0.1
v -0.2 0.7 -2.98023e-08
v -0.2 0.7 -0.1
v -0.2 0.7 -0.2
v -0.2 0.8 0.1
v -0.2 0.8 -2.98023e-08
v -0.2 0.8 -0.1
v -0.2 0.8 -0.2
v -0.2 0.9 -2.98023e-08
v -0.2 0.9 -0.1
v -0.2 1 -2.98023e-08
v -0.2 1 -0.1
v -0.2 1.1 -2.98023e-08
v -0.2 1.1 -0.1
v -0.1 0.1 0.2
v -0.1 0.1 0.1
v -0.1 0.1 -0.2
v -0.1 0.1 -0.3
v -0.1 0.5 0.2
v -0.1 0.5 0.1
v -0.1 0.5 -2.98023e-08
v -0.1 0.5 -0.1
v -0.1 0.5 -0.2
v -0.1 0.5 -0.3
v -0.1 0.6 0.1
v -0.1 0.6 -2.98023e-08
v -0.1 0.6 -0.1
v -0.1 0.6 -0.2
v -0.1 0.7 0.1
v -0.1 0.7 -2.98023e-08
v -0.1 0.7 -0.1
v -0.1 0.7 -0.2
v -0.1 0.9 -2.98023e-08
v -0.1 0.9 -0.1
v -0.1 1 -2.98023e-08
v -0.1 1 -0.1
v 0 0 -2.98023e-08
v 0 0 -0.1
v 0 0.1 0.1
v 0 0.1 -2.98023e-08
v 0 0.1 -0.1
v 0 0.1 -0.2
v 0 0.5 0.1
v 0 0.5 -2.98023e-08
v 0 0.5 -0.1
v 0 0.5 -0.2
v 0 0.6 -2.98023e-08
v 0 0.6 -0.1
v 0 0.7 -2.98023e-08
v 0 0.7 -0.1
v 0.1 0.1 -2.98023e-08
v 0.1 0.1 -0.1
v 0.1 0.3 -2.98023e-08
v 0.1 0.3 -0.1
v 0.1 0.4 -2.98023e-08
v 0.1 0.4 -0.1
v 0.1 0.5 -2.98023e-08
v 0.1 0.5 -0.1
v 0.2 0.3 -2.98023e-08
v 0.2 0.3 -0.1
v 0.2 0.4 -2.98023e-08
v 0.2 0.4 -0.1
v 0.3 0.4 -2.98023e-08
v 0.3 0.4 -0.1
v 0.3 0.6 -2.98023e-08
v 0.3 0.6 -0.1
v -0.4 0.2 0.3
v -0.4 0.5 0.3
v -0.2 0.2 0.3
v -0.2 0.5 0.3
v -0.6 0.3 0.2
v -0.6 0.4 0.2
v -0.5 0.1 0.2
v -0.5 0.2 0.2
v -0.5 0.3 0.2
v -0.5 0.4 0.2
v -0.5 0.5 0.2
v -0.4 0.2 0.2
v -0.4 0.3 0.2
v -0.4 0.5 0.2
v -0.4 0.6 0.2
v -0.2 0.2 0.2
v -0.2 0.5 0.2
v -0.2 0.6 0.2
v -0.1 0.1 0.2
v -0.1 0.5 0.2
v -0.6 0.1 0.1
v -0.6 0.3 0.1
v -0.6 0.4 0.1
v -0.6 0.5 0.1
v -0.5 0.1 0.1
v -0.5 0.2 0.1
v -0.5 0.3 0.1
v -0.5 0.4 0.1
v -0.5 0.5 0.1
v -0.5 0.6 0.1
v -0.5 0.7 0.1
v -0.4 0.5 0.1
v -0.4 0.6 0.1
v -0.4 0.7 0.1
v -0.4 0.8 0.1
v -0.2 0.5 0.1
v -0.2 0.6 0.1
v -0.2 0.7 0.1
v -0.2 0.8 0.1
v -0.1 0.1 0.1
v -0.1 0.5 0.1
v -0.1 0.6 0.1
v -0.1 0.7 0.1
v 0 0.1 0.1
v 0 0.5 0.1
v -0.9 0.4 -2.98023e-08
v -0.9 0.6 -2.98023e-08
v -0.8 0.3 -2.98023e-08
v -0.8 0.4 -2.98023e-08
v -0.8 0.5 -2.98023e-08
v -0.7 0.1 -2.98023e-08
v -0.7 0.3 -2.98023e-08
v -0.7 0.4 -2.98023e-08
v -0.7 0.5 -2.98023e-08
v -0.7 0.6 -2.98023e-08
v -0.6 0 -2.98023e-08
v -0.6 0.1 -2.98023e-08
v -0.6 0.3 -2.98023e-08
v -0.6 0.4 -2.98023e-08
v -0.6 0.5 -2.98023e-08
v -0.6 0.6 -2.98023e-08
v -0.6 0.7 -2.98023e-08
v -0.5 0.5 -2.98023e-08
v -0.5 0.6 -2.98023e-08
v -0.5 0.7 -2.98023e-08
v -0.5 0.9 -2.98023e-08
v -0.5 1 -2.98023e-08
v -0.4 0.8 -2.98023e-08
v -0.4 0.9 -2.98023e-08
v -0.4 1 -2.98023e-08
v -0.4 1.1 -2.98023e-08
v -0.2 0.8 -2.98023e-08
v -0.2 0.9 -2.98023e-08
v -0.2 1 -2.98023e-08
v -0.2 1.1 -2.98023e-08
v -0.1 0.5 -2.98023e-08
v -0.1 0.6 -2.98023e-08
v -0.1 0.7 -2.98023e-08
v -0.1 0.9 -2.98023e-08
v -0.1 1 -2.98023e-08
v 0 0 -2.98023e-08
v 0 0.1 -2.98023e-08
v 0 0.5 -2.98023e-08
v 0 0.6 -2.98023e-08
v 0 0.7 -2.98023e-08
v 0.1 0.1 -2.98023e-08
v 0.1 0.3 -2.98023e-08
v 0.1 0.4 -2.98023e-08
v 0.1 0.5 -2.98023e-08
v 0.1 0.6 -2.98023e-08
v 0.2 0.3 -2.98023e-08
v 0.2 0.4 -2.98023e-08
v 0.2 0.5 -2.98023e-08
v 0.3 0.4 -2.98023e-08
v 0.3 0.6 -2.98023e-08
v -0.9 0.4 -0.1
v -0.9 0.6 -0.1
v -0.8 0.3 -0.1
v -0.8 0.4 -0.1
v -0.8 0.5 -0.1
v -0.7 0.1 -0.1
v -0.7 0.3 -0.1
v -0.7 0.4 -0.1
v -0.7 0.5 -0.1
v -0.7 0.6 -0.1
v -0.6 0 -0.1
v -0.6 0.1 -0.1
v -0.6 0.3 -0.1
v -0.6 0.4 -0.1
v -0.6 0.5 -0.1
v -0.6 0.6 -0.1
v -0.6 0.7 -0.1
v -0.5 0.5 -0.1
v -0.5 0.6 -0.1
v -0.5 0.7 -0.1
v -0.5 0.9 -0.1
v -0.5 1 -0.1
v -0.4 0.8 -0.1
v -0.4 0.9 -0.1
v -0.4 1 -0.1
v -0.4 1.1 -0.1
v -0.2 0.8 -0.1
v -0.2 0.9 -0.1
v -0.2 1 -0.1
v -0.2 1.1 -0.1
v -0.1 0.5 -0.1
v -0.1 0.6 -0.1
v -0.1 0.7 -0.1
v -0.1 0.9 -0.1
v -0.1 1 -0.1
v 0 0 -0.1
v 0 0.1 -0.1
v 0 0.5 -0.1
v 0 0.6 -0.1
v 0 0.7 -0.1
v 0.1 0.1 -0.1
v 0.1 0.3 -0.1
v 0.1 0.4 -0.1
v 0.1 0.5 -0.1
v 0.1 0.6 -0.1
v 0.2 0.3 -0.1
v 0.2 0.4 -0.1
v 0.2 0.5 -0.1
v 0.3 0.4 -0.1
v 0.3 0.6 -0.1
v -0.6 0.1 -0.2
v -0.6 0.3 -0.2
v -0.6 0.4 -0.2
v -0.6 0.5 -0.2
v -0.5 0.1 -0.2
v -0.5 0.2 -0.2
v -0.5 0.3 -0.2
v -0.5 0.4 -0.2
v -0.5 0.5 -0.2
v -0.5 0.6 -0.2
v -0.5 0.7 -0.2
v -0.4 0.5 -0.2
v -0.4 0.6 -0.2
v -0.4 0.7 -0.2
v -0.4 0.8 -0.2
v -0.2 0.5 -0.2
v -0.2 0.6 -0.2
v -0.2 0.7 -0.2
v -0.2 0.8 -0.2
v -0.1 0.1 -0.2
v -0.1 0.5 -0.2
v -0.1 0.6 -0.2
v -0.1 0.7 -0.2
v 0 0.1 -0.2
v 0 0.5 -0.2
v -0.6 0.3 -0.3
v -0.6 0.4 -0.3
v -0.5 0.1 -0.3
v -0.5 0.2 -0.3
v -0.5 0.3 -0.3
v -0.5 0.4 -0.3
v -0.5 0.5 -0.3
v -0.4 0.2 -0.3
v -0.4 0.3 -0.3
v -0.4 0.5 -0.3
v -0.4 0.6 -0.3
v -0.2 0.2 -0.3
v -0.2 0.5 -0.3
v -0.2 0.6 -0.3
v -0.1 0.1 -0.3
v -0.1 0.5 -0.3
v -0.4 0.2 -0.4
v -0.4 0.5 -0.4
v -0.2 0.2 -0.4
v -0.2 0.5 -0.4
v -0.6 0 -2.98023e-08
v 0 0 -2.98023e-08
v -0.6 0 -0.1
v 0 0 -0.1
v -0.5 0.1 0.2
v -0.1 0.1 0.2
v -0.6 0.1 0.1
v -0.5 0.1 0.1
v -0.1 0.1 0.1
v 0 0.1 0.1
v -0.7 0.1 -2.98023e-08
v -0.6 0.1 -2.98023e-08
v 0 0.1 -2.98023e-08
v 0.1 0.1 -2.98023e-08
v -0.7 0.1 -0.1
v -0.6 0.1 -0.1
v 0 0.1 -0.1
v 0.1 0.1 -0.1
v -0.6 0.1 -0.2
v -0.5 0.1 -0.2
v -0.1 0.1 -0.2
v 0 0.1 -0.2
v -0.5 0.1 -0.3
v -0.1 0.1 -0.3
v -0.4 0.2 0.3
v -0.2 0.2 0.3
v -0.4 0.2 0.2
v -0.2 0.2 0.2
v -0.4 0.2 -0.3
v -0.2 0.2 -0.3
v -0.4 0.2 -0.4
v -0.2 0.2 -0.4
v -0.6 0.3 0.2
v -0.5 0.3 0.2
v -0.6 0.3 0.1
v -0.5 0.3 0.1
v -0.8 0.3 -2.98023e-08
v -0.7 0.3 -2.98023e-08
v 0.1 0.3 -2.98023e-08
v 0.2 0.3 -2.98023e-08
v -0.8 0.3 -0.1
v -0.7 0.3 -0.1
v 0.1 0.3 -0.1
v 0.2 0.3 -0.1
v -0.6 0.3 -0.2
v -0.5 0.3 -0.2
v -0.6 0.3 -0.3
v -0.5 0.3 -0.3
v -0.9 0.4 -2.98023e-08
v -0.8 0.4 -2.98023e-08
v 0.2 0.4 -2.98023e-08
v 0.3 0.4 -2.98023e-08
v -0.9 0.4 -0.1
v -0.8 0.4 -0.1
v 0.2 0.4 -0.1
v 0.3 0.4 -0.1
v -0.8 0.5 -2.98023e-08
v -0.7 0.5 -2.98023e-08
v 0.1 0.5 -2.98023e-08
v 0.2 0.5 -2.98023e-08
v -0.8 0.5 -0.1
v -0.7 0.5 -0.1
v 0.1 0.5 -0.1
v 0.2 0.5 -0.1
v -0.5 0.9 -2.98023e-08
v -0.4 0.9 -2.98023e-08
v -0.2 0.9 -2.98023e-08
v -0.1 0.9 -2.98023e-08
v -0.5 0.9 -0.1
v -0.4 0.9 -0.1
v -0.2 0.9 -0.1
v -0.1 0.9 -0.1
v -0.6 0.4 0.2
v -0.5 0.4 0.2
v -0.6 0.4 0.1
v -0.5 0.4 0.1
v -0.8 0.4 -2.98023e-08
v -0.7 0.4 -2.98023e-08
v 0.1 0.4 -2.98023e-08
v 0.2 0.4 -2.98023e-08
v -0.8 0.4 -0.1
v -0.7 0.4 -0.1
v 0.1 0.4 -0.1
v 0.2 0.4 -0.1
v -0.6 0.4 -0.2
v -0.5 0.4 -0.2
v -0.6 0.4 -0.3
v -0.5 0.4 -0.3
v -0.4 0.5 0.3
v -0.2 0.5 0.3
v -0.5 0.5 0.2
v -0.4 0.5 0.2
v -0.2 0.5 0.2
v -0.1 0.5 0.2
v -0.6 0.5 0.1
v -0.5 0.5 0.1
v -0.4 0.5 0.1
v -0.2 0.5 0.1
v -0.1 0.5 0.1
v 0 0.5 0.1
v -0.6 0.5 -2.98023e-08
v -0.5 0.5 -2.98023e-08
v -0.1 0.5 -2.98023e-08
v 0 0.5 -2.98023e-08
v -0.6 0.5 -0.1
v -0.5 0.5 -0.1
v -0.1 0.5 -0.1
v 0 0.5 -0.1
v -0.6 0.5 -0.2
v -0.5 0.5 -0.2
v -0.4 0.5 -0.2
v -0.2 0.5 -0.2
v -0.1 0.5 -0.2
v 0 0.5 -0.2
v -0.5 0.5 -0.3
v -0.4 0.5 -0.3
v -0.2 0.5 -0.3
v -0.1 0.5 -0.3
v -0.4 0.5 -0.4
v -0.2 0.5 -0.4
v -0.4 0.6 0.2
v -0.2 0.6 0.2
v -0.4 0.6 0.1
v -0.2 0.6 0.1
v -0.9 0.6 -2.98023e-08
v -0.7 0.6 -2.98023e-08
v -0.6 0.6 -2.98023e-08
v 0 0.6 -2.98023e-08
v 0.1 0.6 -2.98023e-08
v 0.3 0.6 -2.98023e-08
v -0.9 0.6 -0.1
v -0.7 0.6 -0.1
v -0.6 0.6 -0.1
v 0 0.6 -0.1
v 0.1 0.6 -0.1
v 0.3 0.6 -0.1
v -0.4 0.6 -0.2
v -0.2 0.6 -0.2
v -0.4 0.6 -0.3
v -0.2 0.6 -0.3
v -0.5 0.7 0.1
v -0.4 0.7 0.1
v -0.2 0.7 0.1
v -0.1 0.7 0.1
v -0.6 0.7 -2.98023e-08
v -0.5 0.7 -2.98023e-08
v -0.4 0.7 -2.98023e-08
v -0.2 0.7 -2.98023e-08
v -0.1 0.7 -2.98023e-08
v 0 0.7 -2.98023e-08
v -0.6 0.7 -0.1
v -0.5 0.7 -0.1
v -0.4 0.7 -0.1
v -0.2 0.7 -0.1
v -0.1 0.7 -0.1
v 0 0.7 -0.1
v -0.5 0.7 -0.2
v -0.4 0.7 -0.2
v -0.2 0.7 -0.2
v -0.1 0.7 -0.2
v -0.4 0.8 0.1
v -0.2 0.8 0.1
v -0.4 0.8 -2.98023e-08
v -0.2 0.8 -2.98023e-08
v -0.4 0.8 -0.1
v -0.2 0.8 -0.1
v -0.4 0.8 -0.2
v -0.2 0.8 -0.2
v -0.5 1 -2.98023e-08
v -0.4 1 -2.98023e-08
v -0.2 1 -2.98023e-08
v -0.1 1 -2.98023e-08
v -0.5 1 -0.1
v -0.4 1 -0.1
v -0.2 1 -0.1
v -0.1 1 -0.1
v -0.4 1.1 -2.98023e-08
v -0.2 1.1 -2.98023e-08
v -0.4 1.1 -0.1
v -0.2 1.1 -0.1

# faces
f 3/4/1 2/4/1 1/4/1
f 4/4/1 2/4/1 3/4/1
f 7/4/1 6/4/1 5/4/1
f 8/4/1 6/4/1 7/4/1
f 11/2/1 10/2/1 9/2/1
f 12/2/1 10/2/1 11/2/1
f 15/2/1 14/2/1 13/2/1
f 16/2/1 14/2/1 15/2/1
f 20/3/1 18/3/1 17/3/1
f 21/3/1 18/3/1 20/3/1
f 24/2/1 20/2/1 19/2/1
f 25/2/1 20/2/1 24/2/1
f 26/2/1 22/2/1 21/2/1
f 27/2/1 22/2/1 26/2/1
f 29/3/1 25/3/1 24/3/1
f 29/3/1 24/3/1 23/3/1
f 30/3/1 25/3/1 29/3/1
f 31/3/1 25/3/1 30/3/1
f 32/3/1 28/3/1 27/3/1
f 32/3/1 27/3/1 26/3/1
f 33/3/1 28/3/1 32/3/1
f 34/3/1 28/3/1 33/3/1
f 35/2/1 31/2/1 30/2/1
f 36/2/1 31/2/1 35/2/1
f 37/2/1 33/2/1 32/2/1
f 38/2/1 33/2/1 37/2/1
f 41/4/1 40/4/1 39/4/1
f 42/4/1 40/4/1 41/4/1
f 47/2/1 44/2/1 43/2/1
f 48/2/1 44/2/1 47/2/1
f 49/2/1 46/2/1 45/2/1
f 50/2/1 46/2/1 49/2/1
f 51/3/1 48/3/1 47/3/1
f 52/3/1 48/3/1 51/3/1
f 53/3/1 50/3/1 49/3/1
f 54/3/1 50/3/1 53/3/1
f 59/2/1 56/2/1 55/2/1
f 60/2/1 56/2/1 59/2/1
f 63/2/1 58/2/1 57/2/1
f 64/2/1 58/2/1 63/2/1
f 65/2/1 61/2/1 60/2/1
f 66/2/1 61/2/1 65/2/1
f 67/2/1 63/2/1 62/2/1
f 68/2/1 63/2/1 67/2/1
f 69/3/1 66/3/1 65/3/1
f 70/3/1 66/3/1 69/3/1
f 71/3/1 68/3/1 67/3/1
f 72/3/1 68/3/1 71/3/1
f 75/4/1 74/4/1 73/4/1
f 76/4/1 74/4/1 75/4/1
f 81/2/1 78/2/1 77/2/1
f 82/2/1 80/2/1 79/2/1
f 83/2/1 81/2/1 77/2/1
f 84/2/1 81/2/1 83/2/1
f 87/2/1 80/2/1 82/2/1
f 88/2/1 80/2/1 87/2/1
f 89/2/1 85/2/1 84/2/1
f 90/2/1 85/2/1 89/2/1
f 91/2/1 87/2/1 86/2/1
f 92/2/1 87/2/1 91/2/1
f 97/3/1 94/3/1 93/3/1
f 98/4/1 95/4/1 94/4/1
f 98/3/1 94/3/1 97/3/1
f 99/3/1 96/3/1 95/3/1
f 99/4/1 95/4/1 98/4/1
f 100/3/1 96/3/1 99/3/1
f 101/4/1 99/4/1 98/4/1
f 102/4/1 99/4/1 101/4/1
f 105/1/1 104/1/1 103/1/1
f 106/1/1 104/1/1 105/1/1
f 109/4/1 108/4/1 107/4/1
f 110/4/1 108/4/1 109/4/1
f 111/4/2 112/4/2 113/4/2
f 113/4/2 112/4/2 114/4/2
f 115/2/2 116/2/2 119/2/2
f 119/2/2 116/2/2 120/2/2
f 117/2/2 118/2/2 123/2/2
f 123/2/2 118/2/2 124/2/2
f 120/2/2 121/2/2 125/2/2
f 125/2/2 121/2/2 126/2/2
f 122/2/2 123/2/2 127/2/2
f 127/2/2 123/2/2 128/2/2
f 129/3/2 130/3/2 133/3/2
f 130/4/2 131/4/2 134/4/2
f 133/3/2 130/3/2 134/3/2
f 131/3/2 132/3/2 135/3/2
f 134/4/2 131/4/2 135/4/2
f 135/3/2 132/3/2 136/3/2
f 134/4/2 135/4/2 137/4/2
f 137/4/2 135/4/2 138/4/2
f 139/1/2 140/1/2 141/1/2
f 141/1/2 140/1/2 142/1/2
f 143/2/2 144/2/2 147/2/2
f 147/2/2 144/2/2 148/2/2
f 145/2/2 146/2/2 151/2/2
f 151/2/2 146/2/2 152/2/2
f 148/2/2 149/2/2 153/2/2
f 153/2/2 149/2/2 154/2/2
f 150/2/2 151/2/2 155/2/2
f 155/2/2 151/2/2 156/2/2
f 153/3/2 154/3/2 157/3/2
f 157/3/2 154/3/2 158/3/2
f 155/3/2 156/3/2 159/3/2
f 159/3/2 156/3/2 160/3/2
f 161/4/2 162/4/2 163/4/2
f 163/4/2 162/4/2 164/4/2
f 165/3/2 166/3/2 168/3/2
f 168/3/2 166/3/2 169/3/2
f 167/2/2 168/2/2 171/2/2
f 171/2/2 168/2/2 172/2/2
f 169/2/2 170/2/2 173/2/2
f 173/2/2 170/2/2 174/2/2
f 175/4/2 176/4/2 177/4/2
f 177/4/2 176/4/2 178/4/2
f 179/2/2 180/2/2 181/2/2
f 181/2/2 180/2/2 182/2/2
f 183/2/2 184/2/2 185/2/2
f 185/2/2 184/2/2 186/2/2
f 187/4/2 188/4/2 189/4/2
f 189/4/2 188/4/2 190/4/2
f 191/4/2 192/4/2 193/4/2
f 193/4/2 192/4/2 194/4/2
f 197/2/3 196/2/3 195/2/3
f 198/2/3 196/2/3 197/2/3
f 203/3/3 200/3/3 199/3/3
f 204/3/3 200/3/3 203/3/3
f 206/2/3 202/2/3 201/2/3
f 206/3/3 203/3/3 202/3/3
f 207/2/3 205/2/3 204/2/3
f 207/3/3 203/3/3 206/3/3
f 207/2/3 204/2/3 203/2/3
f 208/2/3 205/2/3 207/2/3
f 210/2/3 206/2/3 201/2/3
f 211/2/3 209/2/3 208/2/3
f 212/2/3 209/2/3 211/2/3
f 213/2/3 210/2/3 201/2/3
f 213/2/3 211/2/3 210/2/3
f 214/2/3 211/2/3 213/2/3
f 219/2/3 216/2/3 215/2/3
f 220/2/3 216/2/3 219/2/3
f 221/2/3 216/2/3 220/2/3
f 222/2/3 218/2/3 217/2/3
f 223/2/3 218/2/3 222/2/3
f 226/2/3 224/2/3 223/2/3
f 227/3/3 225/3/3 224/3/3
f 227/2/3 224/2/3 226/2/3
f 228/3/3 225/3/3 227/3/3
f 231/3/3 229/3/3 228/3/3
f 231/3/3 228/3/3 227/3/3
f 232/3/3 229/3/3 231/3/3
f 233/3/3 229/3/3 232/3/3
f 235/2/3 231/2/3 230/2/3
f 236/3/3 232/3/3 231/3/3
f 236/2/3 231/2/3 235/2/3
f 237/3/3 232/3/3 236/3/3
f 238/2/3 235/2/3 234/2/3
f 239/2/3 235/2/3 238/2/3
f 243/4/3 241/4/3 240/4/3
f 244/4/3 241/4/3 243/4/3
f 246/4/3 243/4/3 242/4/3
f 247/4/3 243/4/3 246/4/3
f 248/4/3 241/4/3 244/4/3
f 249/4/3 241/4/3 248/4/3
f 251/2/3 247/2/3 246/2/3
f 251/2/3 246/2/3 245/2/3
f 251/2/3 249/2/3 248/2/3
f 251/2/3 248/2/3 247/2/3
f 252/2/3 249/2/3 251/2/3
f 253/2/3 249/2/3 252/2/3
f 254/2/3 249/2/3 253/2/3
f 255/2/3 249/2/3 254/2/3
f 257/2/3 255/2/3 254/2/3
f 258/4/3 256/4/3 255/4/3
f 258/2/3 255/2/3 257/2/3
f 259/4/3 256/4/3 258/4/3
f 263/4/3 261/4/3 260/4/3
f 264/4/3 261/4/3 263/4/3
f 266/4/3 263/4/3 262/4/3
f 266/4/3 264/4/3 263/4/3
f 267/4/3 264/4/3 266/4/3
f 268/1/3 265/1/3 264/1/3
f 268/4/3 264/4/3 267/4/3
f 269/1/3 265/1/3 268/1/3
f 273/4/3 268/4/3 267/4/3
f 274/4/3 268/4/3 273/4/3
f 275/3/3 251/3/3 250/3/3
f 276/3/3 251/3/3 275/3/3
f 277/2/3 271/2/3 270/2/3
f 278/4/3 272/4/3 271/4/3
f 278/2/3 271/2/3 277/2/3
f 279/4/3 272/4/3 278/4/3
f 280/2/3 277/2/3 276/2/3
f 280/2/3 278/2/3 277/2/3
f 281/2/3 278/2/3 280/2/3
f 282/2/3 278/2/3 281/2/3
f 283/2/3 278/2/3 282/2/3
f 284/2/3 278/2/3 283/2/3
f 285/4/3 282/4/3 281/4/3
f 286/4/3 282/4/3 285/4/3
f 287/4/3 284/4/3 283/4/3
f 288/4/3 287/4/3 286/4/3
f 289/4/3 284/4/3 287/4/3
f 289/4/3 287/4/3 288/4/3
f 290/4/4 291/4/4 293/4/4
f 293/4/4 291/4/4 294/4/4
f 292/4/4 293/4/4 296/4/4
f 296/4/4 293/4/4 297/4/4
f 294/4/4 291/4/4 298/4/4
f 298/4/4 291/4/4 299/4/4
f 296/2/4 297/2/4 301/2/4
f 295/2/4 296/2/4 301/2/4
f 298/2/4 299/2/4 301/2/4
f 297/2/4 298/2/4 301/2/4
f 301/2/4 299/2/4 302/2/4
f 302/2/4 299/2/4 303/2/4
f 303/2/4 299/2/4 304/2/4
f 304/2/4 299/2/4 305/2/4
f 304/2/4 305/2/4 307/2/4
f 305/4/4 306/4/4 308/4/4
f 307/2/4 305/2/4 308/2/4
f 308/4/4 306/4/4 309/4/4
f 310/4/4 311/4/4 313/4/4
f 313/4/4 311/4/4 314/4/4
f 312/4/4 313/4/4 316/4/4
f 313/4/4 314/4/4 316/4/4
f 316/4/4 314/4/4 317/4/4
f 314/1/4 315/1/4 318/1/4
f 317/4/4 314/4/4 318/4/4
f 318/1/4 315/1/4 319/1/4
f 317/4/4 318/4/4 323/4/4
f 323/4/4 318/4/4 324/4/4
f 300/3/4 301/3/4 325/3/4
f 325/3/4 301/3/4 326/3/4
f 320/2/4 321/2/4 327/2/4
f 321/4/4 322/4/4 328/4/4
f 327/2/4 321/2/4 328/2/4
f 328/4/4 322/4/4 329/4/4
f 326/2/4 327/2/4 330/2/4
f 327/2/4 328/2/4 330/2/4
f 330/2/4 328/2/4 331/2/4
f 331/2/4 328/2/4 332/2/4
f 332/2/4 328/2/4 333/2/4
f 333/2/4 328/2/4 334/2/4
f 331/4/4 332/4/4 335/4/4
f 335/4/4 332/4/4 336/4/4
f 333/4/4 334/4/4 337/4/4
f 336/4/4 337/4/4 338/4/4
f 337/4/4 334/4/4 339/4/4
f 338/4/4 337/4/4 339/4/4
f 340/2/4 341/2/4 344/2/4
f 344/2/4 341/2/4 345/2/4
f 345/2/4 341/2/4 346/2/4
f 342/2/4 343/2/4 347/2/4
f 347/2/4 343/2/4 348/2/4
f 348/2/4 349/2/4 351/2/4
f 349/3/4 350/3/4 352/3/4
f 351/2/4 349/2/4 352/2/4
f 352/3/4 350/3/4 353/3/4
f 353/3/4 354/3/4 356/3/4
f 352/3/4 353/3/4 356/3/4
f 356/3/4 354/3/4 357/3/4
f 357/3/4 354/3/4 358/3/4
f 355/2/4 356/2/4 360/2/4
f 356/3/4 357/3/4 361/3/4
f 360/2/4 356/2/4 361/2/4
f 361/3/4 357/3/4 362/3/4
f 359/2/4 360/2/4 363/2/4
f 363/2/4 360/2/4 364/2/4
f 365/3/4 366/3/4 369/3/4
f 369/3/4 366/3/4 370/3/4
f 367/2/4 368/2/4 372/2/4
f 368/3/4 369/3/4 372/3/4
f 370/2/4 371/2/4 373/2/4
f 372/3/4 369/3/4 373/3/4
f 369/2/4 370/2/4 373/2/4
f 373/2/4 371/2/4 374/2/4
f 367/2/4 372/2/4 376/2/4
f 374/2/4 375/2/4 377/2/4
f 377/2/4 375/2/4 378/2/4
f 367/2/4 376/2/4 379/2/4
f 376/2/4 377/2/4 379/2/4
f 379/2/4 377/2/4 380/2/4
f 381/2/4 382/2/4 383/2/4
f 383/2/4 382/2/4 384/2/4
f 387/3/5 386/3/5 385/3/5
f 388/3/5 386/3/5 387/3/5
f 392/2/5 390/2/5 389/2/5
f 393/2/5 390/2/5 392/2/5
f 396/2/5 392/2/5 391/2/5
f 396/2/5 394/2/5 393/2/5
f 396/2/5 393/2/5 392/2/5
f 397/2/5 394/2/5 396/2/5
f 399/2/5 396/2/5 395/2/5
f 400/2/5 396/2/5 399/2/5
f 401/2/5 398/2/5 397/2/5
f 402/2/5 398/2/5 401/2/5
f 403/2/5 401/2/5 400/2/5
f 404/2/5 401/2/5 403/2/5
f 405/2/5 401/2/5 404/2/5
f 406/2/5 401/2/5 405/2/5
f 407/2/5 405/2/5 404/2/5
f 408/2/5 405/2/5 407/2/5
f 411/2/5 410/2/5 409/2/5
f 412/2/5 410/2/5 411/2/5
f 415/2/5 414/2/5 413/2/5
f 416/2/5 414/2/5 415/2/5
f 419/3/5 418/3/5 417/3/5
f 420/3/5 418/3/5 419/3/5
f 425/4/5 422/4/5 421/4/5
f 426/4/5 422/4/5 425/4/5
f 427/4/5 424/4/5 423/4/5
f 428/4/5 424/4/5 427/4/5
f 431/3/5 430/3/5 429/3/5
f 432/3/5 430/3/5 431/3/5
f 437/4/5 434/4/5 433/4/5
f 438/4/5 434/4/5 437/4/5
f 439/4/5 436/4/5 435/4/5
f 440/4/5 436/4/5 439/4/5
f 445/4/5 442/4/5 441/4/5
f 446/4/5 442/4/5 445/4/5
f 447/4/5 444/4/5 443/4/5
f 448/4/5 444/4/5 447/4/5
f 453/4/5 450/4/5 449/4/5
f 454/4/5 450/4/5 453/4/5
f 455/4/5 452/4/5 451/4/5
f 456/4/5 452/4/5 455/4/5
f 457/3/6 458/3/6 459/3/6
f 459/3/6 458/3/6 460/3/6
f 461/4/6 462/4/6 465/4/6
f 465/4/6 462/4/6 466/4/6
f 463/4/6 464/4/6 467/4/6
f 467/4/6 464/4/6 468/4/6
f 469/3/6 470/3/6 471/3/6
f 471/3/6 470/3/6 472/3/6
f 473/2/6 474/2/6 476/2/6
f 476/2/6 474/2/6 477/2/6
f 475/2/6 476/2/6 480/2/6
f 480/2/6 476/2/6 481/2/6
f 477/2/6 478/2/6 482/2/6
f 482/2/6 478/2/6 483/2/6
f 479/2/6 480/2/6 485/2/6
f 485/2/6 480/2/6 486/2/6
f 483/2/6 484/2/6 487/2/6
f 487/2/6 484/2/6 488/2/6
f 489/2/6 490/2/6 493/2/6
f 493/2/6 490/2/6 494/2/6
f 491/2/6 492/2/6 497/2/6
f 497/2/6 492/2/6 498/2/6
f 494/2/6 495/2/6 499/2/6
f 499/2/6 495/2/6 500/2/6
f 496/2/6 497/2/6 501/2/6
f 501/2/6 497/2/6 502/2/6
f 500/2/6 501/2/6 503/2/6
f 503/2/6 501/2/6 504/2/6
f 505/2/6 506/2/6 507/2/6
f 507/2/6 506/2/6 508/2/6
f 509/4/6 510/4/6 515/4/6
f 510/2/6 511/2/6 516/2/6
f 515/4/6 510/4/6 516/4/6
f 516/2/6 511/2/6 517/2/6
f 512/2/6 513/2/6 518/2/6
f 513/4/6 514/4/6 519/4/6
f 518/2/6 513/2/6 519/2/6
f 519/4/6 514/4/6 520/4/6
f 521/2/6 522/2/6 523/2/6
f 523/2/6 522/2/6 524/2/6
f 525/3/6 526/3/6 530/3/6
f 530/3/6 526/3/6 531/3/6
f 527/3/6 528/3/6 532/3/6
f 532/3/6 528/3/6 533/3/6
f 530/4/6 531/4/6 535/4/6
f 529/4/6 530/4/6 535/4/6
f 535/4/6 531/4/6 536/4/6
f 536/4/6 531/4/6 537/4/6
f 533/4/6 534/4/6 538/4/6
f 532/4/6 533/4/6 538/4/6
f 538/4/6 534/4/6 539/4/6
f 539/4/6 534/4/6 540/4/6
f 536/3/6 537/3/6 541/3/6
f 541/3/6 537/3/6 542/3/6
f 538/3/6 539/3/6 543/3/6
f 543/3/6 539/3/6 544/3/6
f 545/3/6 546/3/6 547/3/6
f 547/3/6 546/3/6 548/3/6
f 549/3/6 550/3/6 551/3/6
f 551/3/6 550/3/6 552/3/6
f 553/4/6 554/4/6 557/4/6
f 557/4/6 554/4/6 558/4/6
f 555/4/6 556/4/6 559/4/6
f 559/4/6 556/4/6 560/4/6
f 561/1/6 562/1/6 563/1/6
f 563/1/6 562/1/6 564/1/6
