# MagicaVoxel @ Ephtracy

# group
o 

# material
mtllib tumbaJheal.mtl
usemtl palette

# normals
vn -1 0 0
vn 1 0 0
vn 0 0 1
vn 0 0 -1
vn 0 -1 0
vn 0 1 0

# texcoords
vt 0.916016 0.5
vt 0.978516 0.5
vt 0.982422 0.5

# verts
v -1.6 2.4 0.3
v -1.6 2.4 -1
v -1.6 2.8 0.3
v -1.6 2.8 -1
v -1.3 2.8 0
v -1.3 2.8 -0.7
v -1.3 5.4 0
v -1.3 5.4 -0.7
v -1.2 5.4 0
v -1.2 5.4 -0.7
v -1.2 5.5 0
v -1.2 5.5 -0.7
v -1 5.5 0
v -1 5.5 -0.7
v -1 5.6 0
v -1 5.6 -0.7
v -0.8 5.6 0
v -0.8 5.6 -0.7
v -0.8 5.7 0
v -0.8 5.7 -0.7
v -0.5 5.7 0
v -0.5 5.7 -0.7
v -0.5 5.8 0
v -0.5 5.8 -0.7
v -0.3 5.8 0
v -0.3 5.8 -0.7
v -0.3 5.9 0
v -0.3 5.9 -0.7
v 0.4 5.8 0
v 0.4 5.8 -0.7
v 0.4 5.9 0
v 0.4 5.9 -0.7
v 0.6 5.7 0
v 0.6 5.7 -0.7
v 0.6 5.8 0
v 0.6 5.8 -0.7
v 0.9 5.6 0
v 0.9 5.6 -0.7
v 0.9 5.7 0
v 0.9 5.7 -0.7
v 1.1 5.5 0
v 1.1 5.5 -0.7
v 1.1 5.6 0
v 1.1 5.6 -0.7
v 1.3 5.4 0
v 1.3 5.4 -0.7
v 1.3 5.5 0
v 1.3 5.5 -0.7
v 1.4 2.8 0
v 1.4 2.8 -0.7
v 1.4 5.4 0
v 1.4 5.4 -0.7
v 1.7 2.4 0.3
v 1.7 2.4 -1
v 1.7 2.8 0.3
v 1.7 2.8 -1
v -1.6 2.4 0.3
v -1.6 2.8 0.3
v 1.7 2.4 0.3
v 1.7 2.8 0.3
v -1.3 2.8 0
v -1.3 5.4 0
v -1.2 5.4 0
v -1.2 5.5 0
v -1 5.5 0
v -1 5.6 0
v -0.9 4 0
v -0.9 4.1 0
v -0.8 3.9 0
v -0.8 4 0
v -0.8 4.1 0
v -0.8 4.3 0
v -0.8 4.4 0
v -0.8 5.6 0
v -0.8 5.7 0
v -0.7 4 0
v -0.7 4.3 0
v -0.6 3.9 0
v -0.6 4.3 0
v -0.5 4.3 0
v -0.5 4.4 0
v -0.5 4.5 0
v -0.5 5 0
v -0.5 5.7 0
v -0.5 5.8 0
v -0.4 3.9 0
v -0.4 4.4 0
v -0.4 4.5 0
v -0.4 4.6 0
v -0.4 4.8 0
v -0.4 4.9 0
v -0.3 3.9 0
v -0.3 4.1 0
v -0.3 4.2 0
v -0.3 4.4 0
v -0.3 4.5 0
v -0.3 4.6 0
v -0.3 4.7 0
v -0.3 4.8 0
v -0.3 4.9 0
v -0.3 5.8 0
v -0.3 5.9 0
v -0.2 3.9 0
v -0.2 4.1 0
v -0.2 4.2 0
v -0.2 4.4 0
v -0.2 4.5 0
v -0.2 4.6 0
v -0.2 4.7 0
v -0.2 5 0
v -0.1 3.9 0
v -0.1 4.4 0
v -0.1 4.5 0
v -0.1 5 0
v 0 3.9 0
v 0 4.4 0
v 0 4.5 0
v 0 5 0
v 0.1 3.9 0
v 0.1 4.1 0
v 0.1 4.2 0
v 0.1 4.3 0
v 0.1 4.5 0
v 0.1 5 0
v 0.2 3.9 0
v 0.2 4.1 0
v 0.2 4.2 0
v 0.2 4.3 0
v 0.2 4.5 0
v 0.2 4.7 0
v 0.2 4.8 0
v 0.2 4.9 0
v 0.3 3.9 0
v 0.3 4.4 0
v 0.3 4.8 0
v 0.3 4.9 0
v 0.4 3.9 0
v 0.4 4.4 0
v 0.4 4.7 0
v 0.4 5 0
v 0.4 5.8 0
v 0.4 5.9 0
v 0.5 4 0
v 0.5 4.1 0
v 0.5 4.2 0
v 0.5 4.3 0
v 0.6 3.9 0
v 0.6 4 0
v 0.6 4.1 0
v 0.6 4.2 0
v 0.6 4.3 0
v 0.6 4.4 0
v 0.6 5.7 0
v 0.6 5.8 0
v 0.7 3.9 0
v 0.7 4.4 0
v 0.8 4 0
v 0.8 4.4 0
v 0.9 3.9 0
v 0.9 4 0
v 0.9 5.6 0
v 0.9 5.7 0
v 1.1 5.5 0
v 1.1 5.6 0
v 1.3 5.4 0
v 1.3 5.5 0
v 1.4 2.8 0
v 1.4 5.4 0
v -1.3 2.8 -0.7
v -1.3 5.4 -0.7
v -1.2 5.4 -0.7
v -1.2 5.5 -0.7
v -1 5.5 -0.7
v -1 5.6 -0.7
v -0.8 5.6 -0.7
v -0.8 5.7 -0.7
v -0.5 5.7 -0.7
v -0.5 5.8 -0.7
v -0.3 5.8 -0.7
v -0.3 5.9 -0.7
v 0.4 5.8 -0.7
v 0.4 5.9 -0.7
v 0.6 5.7 -0.7
v 0.6 5.8 -0.7
v 0.9 5.6 -0.7
v 0.9 5.7 -0.7
v 1.1 5.5 -0.7
v 1.1 5.6 -0.7
v 1.3 5.4 -0.7
v 1.3 5.5 -0.7
v 1.4 2.8 -0.7
v 1.4 5.4 -0.7
v -1.6 2.4 -1
v -1.6 2.8 -1
v 1.7 2.4 -1
v 1.7 2.8 -1
v -1.6 2.4 0.3
v 1.7 2.4 0.3
v -1.6 2.4 -1
v 1.7 2.4 -1
v -1.6 2.8 0.3
v 1.7 2.8 0.3
v -1.3 2.8 0
v 1.4 2.8 0
v -1.3 2.8 -0.7
v 1.4 2.8 -0.7
v -1.6 2.8 -1
v 1.7 2.8 -1
v -1.3 5.4 0
v -1.2 5.4 0
v 1.3 5.4 0
v 1.4 5.4 0
v -1.3 5.4 -0.7
v -1.2 5.4 -0.7
v 1.3 5.4 -0.7
v 1.4 5.4 -0.7
v -1.2 5.5 0
v -1 5.5 0
v 1.1 5.5 0
v 1.3 5.5 0
v -1.2 5.5 -0.7
v -1 5.5 -0.7
v 1.1 5.5 -0.7
v 1.3 5.5 -0.7
v -1 5.6 0
v -0.8 5.6 0
v 0.9 5.6 0
v 1.1 5.6 0
v -1 5.6 -0.7
v -0.8 5.6 -0.7
v 0.9 5.6 -0.7
v 1.1 5.6 -0.7
v -0.8 5.7 0
v -0.5 5.7 0
v 0.6 5.7 0
v 0.9 5.7 0
v -0.8 5.7 -0.7
v -0.5 5.7 -0.7
v 0.6 5.7 -0.7
v 0.9 5.7 -0.7
v -0.5 5.8 0
v -0.3 5.8 0
v 0.4 5.8 0
v 0.6 5.8 0
v -0.5 5.8 -0.7
v -0.3 5.8 -0.7
v 0.4 5.8 -0.7
v 0.6 5.8 -0.7
v -0.3 5.9 0
v 0.4 5.9 0
v -0.3 5.9 -0.7
v 0.4 5.9 -0.7

# faces
f 3/3/1 2/3/1 1/3/1
f 4/3/1 2/3/1 3/3/1
f 7/2/1 6/2/1 5/2/1
f 8/2/1 6/2/1 7/2/1
f 11/2/1 10/2/1 9/2/1
f 12/2/1 10/2/1 11/2/1
f 15/2/1 14/2/1 13/2/1
f 16/2/1 14/2/1 15/2/1
f 19/2/1 18/2/1 17/2/1
f 20/2/1 18/2/1 19/2/1
f 23/2/1 22/2/1 21/2/1
f 24/2/1 22/2/1 23/2/1
f 27/2/1 26/2/1 25/2/1
f 28/2/1 26/2/1 27/2/1
f 29/2/2 30/2/2 31/2/2
f 31/2/2 30/2/2 32/2/2
f 33/2/2 34/2/2 35/2/2
f 35/2/2 34/2/2 36/2/2
f 37/2/2 38/2/2 39/2/2
f 39/2/2 38/2/2 40/2/2
f 41/2/2 42/2/2 43/2/2
f 43/2/2 42/2/2 44/2/2
f 45/2/2 46/2/2 47/2/2
f 47/2/2 46/2/2 48/2/2
f 49/2/2 50/2/2 51/2/2
f 51/2/2 50/2/2 52/2/2
f 53/3/2 54/3/2 55/3/2
f 55/3/2 54/3/2 56/3/2
f 59/3/3 58/3/3 57/3/3
f 60/3/3 58/3/3 59/3/3
f 63/2/3 62/2/3 61/2/3
f 65/2/3 64/2/3 63/2/3
f 67/2/3 63/2/3 61/2/3
f 67/2/3 66/2/3 65/2/3
f 67/2/3 65/2/3 63/2/3
f 68/2/3 66/2/3 67/2/3
f 69/2/3 67/2/3 61/2/3
f 70/1/3 68/1/3 67/1/3
f 70/2/3 67/2/3 69/2/3
f 71/2/3 66/2/3 68/2/3
f 71/1/3 68/1/3 70/1/3
f 72/2/3 66/2/3 71/2/3
f 73/2/3 66/2/3 72/2/3
f 74/2/3 66/2/3 73/2/3
f 76/1/3 70/1/3 69/1/3
f 76/2/3 71/2/3 70/2/3
f 76/2/3 72/2/3 71/2/3
f 77/1/3 73/1/3 72/1/3
f 77/2/3 72/2/3 76/2/3
f 78/2/3 69/2/3 61/2/3
f 78/1/3 76/1/3 69/1/3
f 78/1/3 77/1/3 76/1/3
f 79/1/3 73/1/3 77/1/3
f 79/1/3 77/1/3 78/1/3
f 80/2/3 79/2/3 78/2/3
f 80/1/3 73/1/3 79/1/3
f 81/2/3 75/2/3 74/2/3
f 81/1/3 73/1/3 80/1/3
f 81/2/3 74/2/3 73/2/3
f 82/2/3 75/2/3 81/2/3
f 83/2/3 75/2/3 82/2/3
f 84/2/3 75/2/3 83/2/3
f 86/2/3 80/2/3 78/2/3
f 86/2/3 78/2/3 61/2/3
f 86/2/3 81/2/3 80/2/3
f 86/2/3 82/2/3 81/2/3
f 87/2/3 82/2/3 86/2/3
f 88/1/3 83/1/3 82/1/3
f 88/2/3 82/2/3 87/2/3
f 89/1/3 83/1/3 88/1/3
f 90/1/3 83/1/3 89/1/3
f 91/1/3 83/1/3 90/1/3
f 92/1/3 87/1/3 86/1/3
f 92/2/3 86/2/3 61/2/3
f 93/1/3 87/1/3 92/1/3
f 94/1/3 87/1/3 93/1/3
f 95/2/3 88/2/3 87/2/3
f 95/1/3 87/1/3 94/1/3
f 95/2/3 89/2/3 88/2/3
f 96/2/3 89/2/3 95/2/3
f 97/1/3 90/1/3 89/1/3
f 97/2/3 89/2/3 96/2/3
f 98/1/3 90/1/3 97/1/3
f 99/2/3 91/2/3 90/2/3
f 99/1/3 90/1/3 98/1/3
f 100/1/3 83/1/3 91/1/3
f 100/2/3 91/2/3 99/2/3
f 101/2/3 85/2/3 84/2/3
f 101/2/3 84/2/3 83/2/3
f 103/2/3 93/2/3 92/2/3
f 103/2/3 92/2/3 61/2/3
f 104/1/3 94/1/3 93/1/3
f 104/2/3 93/2/3 103/2/3
f 105/2/3 96/2/3 95/2/3
f 105/1/3 94/1/3 104/1/3
f 105/2/3 95/2/3 94/2/3
f 106/2/3 96/2/3 105/2/3
f 107/1/3 97/1/3 96/1/3
f 107/2/3 96/2/3 106/2/3
f 108/2/3 98/2/3 97/2/3
f 108/1/3 97/1/3 107/1/3
f 109/1/3 100/1/3 99/1/3
f 109/2/3 98/2/3 108/2/3
f 109/1/3 99/1/3 98/1/3
f 110/1/3 83/1/3 100/1/3
f 110/1/3 100/1/3 109/1/3
f 110/2/3 102/2/3 101/2/3
f 110/2/3 101/2/3 83/2/3
f 111/1/3 105/1/3 104/1/3
f 111/2/3 103/2/3 61/2/3
f 111/1/3 106/1/3 105/1/3
f 111/1/3 104/1/3 103/1/3
f 112/2/3 109/2/3 108/2/3
f 112/1/3 106/1/3 111/1/3
f 112/2/3 108/2/3 107/2/3
f 112/2/3 110/2/3 109/2/3
f 112/2/3 107/2/3 106/2/3
f 113/2/3 110/2/3 112/2/3
f 114/2/3 102/2/3 110/2/3
f 114/2/3 110/2/3 113/2/3
f 115/2/3 111/2/3 61/2/3
f 115/2/3 113/2/3 112/2/3
f 115/2/3 112/2/3 111/2/3
f 116/2/3 113/2/3 115/2/3
f 117/1/3 114/1/3 113/1/3
f 117/2/3 113/2/3 116/2/3
f 118/2/3 102/2/3 114/2/3
f 118/1/3 114/1/3 117/1/3
f 119/1/3 116/1/3 115/1/3
f 119/2/3 115/2/3 61/2/3
f 120/1/3 116/1/3 119/1/3
f 121/1/3 116/1/3 120/1/3
f 122/1/3 116/1/3 121/1/3
f 123/2/3 117/2/3 116/2/3
f 123/2/3 118/2/3 117/2/3
f 124/2/3 102/2/3 118/2/3
f 124/2/3 118/2/3 123/2/3
f 125/2/3 119/2/3 61/2/3
f 125/2/3 120/2/3 119/2/3
f 126/1/3 121/1/3 120/1/3
f 126/2/3 120/2/3 125/2/3
f 127/2/3 122/2/3 121/2/3
f 127/1/3 121/1/3 126/1/3
f 128/1/3 116/1/3 122/1/3
f 128/2/3 122/2/3 127/2/3
f 129/2/3 123/2/3 116/2/3
f 129/1/3 124/1/3 123/1/3
f 130/1/3 124/1/3 129/1/3
f 131/1/3 124/1/3 130/1/3
f 132/1/3 124/1/3 131/1/3
f 133/1/3 127/1/3 126/1/3
f 133/1/3 126/1/3 125/1/3
f 133/1/3 128/1/3 127/1/3
f 133/2/3 125/2/3 61/2/3
f 134/1/3 116/1/3 128/1/3
f 134/1/3 128/1/3 133/1/3
f 134/2/3 130/2/3 129/2/3
f 134/2/3 129/2/3 116/2/3
f 135/2/3 132/2/3 131/2/3
f 135/1/3 131/1/3 130/1/3
f 136/1/3 124/1/3 132/1/3
f 136/2/3 132/2/3 135/2/3
f 137/2/3 133/2/3 61/2/3
f 137/2/3 134/2/3 133/2/3
f 138/2/3 130/2/3 134/2/3
f 138/2/3 134/2/3 137/2/3
f 139/1/3 135/1/3 130/1/3
f 139/2/3 130/2/3 138/2/3
f 139/1/3 136/1/3 135/1/3
f 140/1/3 124/1/3 136/1/3
f 140/1/3 136/1/3 139/1/3
f 140/2/3 102/2/3 124/2/3
f 141/2/3 102/2/3 140/2/3
f 142/2/3 102/2/3 141/2/3
f 143/1/3 138/1/3 137/1/3
f 144/1/3 138/1/3 143/1/3
f 145/1/3 138/1/3 144/1/3
f 146/1/3 138/1/3 145/1/3
f 147/2/3 137/2/3 61/2/3
f 147/1/3 143/1/3 137/1/3
f 148/2/3 144/2/3 143/2/3
f 148/1/3 143/1/3 147/1/3
f 149/1/3 145/1/3 144/1/3
f 149/2/3 144/2/3 148/2/3
f 150/2/3 146/2/3 145/2/3
f 150/1/3 145/1/3 149/1/3
f 151/1/3 138/1/3 146/1/3
f 151/2/3 146/2/3 150/2/3
f 152/2/3 139/2/3 138/2/3
f 152/1/3 138/1/3 151/1/3
f 152/2/3 140/2/3 139/2/3
f 152/2/3 141/2/3 140/2/3
f 153/2/3 141/2/3 152/2/3
f 154/2/3 141/2/3 153/2/3
f 155/2/3 151/2/3 150/2/3
f 155/2/3 150/2/3 149/2/3
f 155/2/3 153/2/3 152/2/3
f 155/2/3 152/2/3 151/2/3
f 155/2/3 149/2/3 148/2/3
f 155/2/3 147/2/3 61/2/3
f 155/2/3 148/2/3 147/2/3
f 156/2/3 153/2/3 155/2/3
f 157/1/3 156/1/3 155/1/3
f 158/2/3 153/2/3 156/2/3
f 158/1/3 156/1/3 157/1/3
f 159/2/3 155/2/3 61/2/3
f 159/1/3 157/1/3 155/1/3
f 160/2/3 158/2/3 157/2/3
f 160/1/3 157/1/3 159/1/3
f 161/2/3 153/2/3 158/2/3
f 161/2/3 158/2/3 160/2/3
f 162/2/3 153/2/3 161/2/3
f 163/2/3 160/2/3 159/2/3
f 163/2/3 161/2/3 160/2/3
f 164/2/3 161/2/3 163/2/3
f 165/2/3 163/2/3 159/2/3
f 166/2/3 163/2/3 165/2/3
f 167/2/3 159/2/3 61/2/3
f 167/2/3 165/2/3 159/2/3
f 168/2/3 165/2/3 167/2/3
f 169/2/4 170/2/4 171/2/4
f 171/2/4 172/2/4 173/2/4
f 173/2/4 174/2/4 175/2/4
f 175/2/4 176/2/4 177/2/4
f 177/2/4 178/2/4 179/2/4
f 177/2/4 179/2/4 181/2/4
f 179/2/4 180/2/4 181/2/4
f 181/2/4 180/2/4 182/2/4
f 175/2/4 177/2/4 183/2/4
f 177/2/4 181/2/4 183/2/4
f 183/2/4 181/2/4 184/2/4
f 173/2/4 175/2/4 185/2/4
f 175/2/4 183/2/4 185/2/4
f 185/2/4 183/2/4 186/2/4
f 171/2/4 173/2/4 187/2/4
f 173/2/4 185/2/4 187/2/4
f 187/2/4 185/2/4 188/2/4
f 169/2/4 171/2/4 189/2/4
f 171/2/4 187/2/4 189/2/4
f 189/2/4 187/2/4 190/2/4
f 169/2/4 189/2/4 191/2/4
f 191/2/4 189/2/4 192/2/4
f 193/3/4 194/3/4 195/3/4
f 195/3/4 194/3/4 196/3/4
f 199/3/5 198/3/5 197/3/5
f 200/3/5 198/3/5 199/3/5
f 201/3/6 202/3/6 203/3/6
f 203/3/6 202/3/6 204/3/6
f 201/3/6 203/3/6 205/3/6
f 204/3/6 202/3/6 206/3/6
f 201/3/6 205/3/6 207/3/6
f 205/3/6 206/3/6 207/3/6
f 206/3/6 202/3/6 208/3/6
f 207/3/6 206/3/6 208/3/6
f 209/2/6 210/2/6 213/2/6
f 213/2/6 210/2/6 214/2/6
f 211/2/6 212/2/6 215/2/6
f 215/2/6 212/2/6 216/2/6
f 217/2/6 218/2/6 221/2/6
f 221/2/6 218/2/6 222/2/6
f 219/2/6 220/2/6 223/2/6
f 223/2/6 220/2/6 224/2/6
f 225/2/6 226/2/6 229/2/6
f 229/2/6 226/2/6 230/2/6
f 227/2/6 228/2/6 231/2/6
f 231/2/6 228/2/6 232/2/6
f 233/2/6 234/2/6 237/2/6
f 237/2/6 234/2/6 238/2/6
f 235/2/6 236/2/6 239/2/6
f 239/2/6 236/2/6 240/2/6
f 241/2/6 242/2/6 245/2/6
f 245/2/6 242/2/6 246/2/6
f 243/2/6 244/2/6 247/2/6
f 247/2/6 244/2/6 248/2/6
f 249/2/6 250/2/6 251/2/6
f 251/2/6 250/2/6 252/2/6
