# MagicaVoxel @ Ephtracy

# group
o 

# material
mtllib tumba.mtl
usemtl palette

# normals
vn -1 0 0
vn 1 0 0
vn 0 0 1
vn 0 0 -1
vn 0 -1 0
vn 0 1 0

# texcoords
vt 0.916016 0.5
vt 0.978516 0.5
vt 0.982422 0.5

# verts
v -1.6 2.4 0.3
v -1.6 2.4 -1
v -1.6 2.8 0.3
v -1.6 2.8 -1
v -1.3 2.8 0
v -1.3 2.8 -0.7
v -1.3 5.4 0
v -1.3 5.4 -0.7
v -1.2 5.4 0
v -1.2 5.4 -0.7
v -1.2 5.5 0
v -1.2 5.5 -0.7
v -1 5.5 0
v -1 5.5 -0.7
v -1 5.6 0
v -1 5.6 -0.7
v -0.8 5.6 0
v -0.8 5.6 -0.7
v -0.8 5.7 0
v -0.8 5.7 -0.7
v -0.5 5.7 0
v -0.5 5.7 -0.7
v -0.5 5.8 0
v -0.5 5.8 -0.7
v -0.3 5.8 0
v -0.3 5.8 -0.7
v -0.3 5.9 0
v -0.3 5.9 -0.7
v 0.4 5.8 0
v 0.4 5.8 -0.7
v 0.4 5.9 0
v 0.4 5.9 -0.7
v 0.6 5.7 0
v 0.6 5.7 -0.7
v 0.6 5.8 0
v 0.6 5.8 -0.7
v 0.9 5.6 0
v 0.9 5.6 -0.7
v 0.9 5.7 0
v 0.9 5.7 -0.7
v 1.1 5.5 0
v 1.1 5.5 -0.7
v 1.1 5.6 0
v 1.1 5.6 -0.7
v 1.3 5.4 0
v 1.3 5.4 -0.7
v 1.3 5.5 0
v 1.3 5.5 -0.7
v 1.4 2.8 0
v 1.4 2.8 -0.7
v 1.4 5.4 0
v 1.4 5.4 -0.7
v 1.7 2.4 0.3
v 1.7 2.4 -1
v 1.7 2.8 0.3
v 1.7 2.8 -1
v -1.6 2.4 0.3
v -1.6 2.8 0.3
v 1.7 2.4 0.3
v 1.7 2.8 0.3
v -1.3 2.8 0
v -1.3 5.4 0
v -1.2 5.4 0
v -1.2 5.5 0
v -1 5.5 0
v -1 5.6 0
v -0.8 5.6 0
v -0.8 5.7 0
v -0.5 4 0
v -0.5 4.5 0
v -0.5 5.7 0
v -0.5 5.8 0
v -0.4 4 0
v -0.4 4.1 0
v -0.4 4.3 0
v -0.4 4.4 0
v -0.3 4 0
v -0.3 4.1 0
v -0.3 4.2 0
v -0.3 4.3 0
v -0.3 4.4 0
v -0.3 5.8 0
v -0.3 5.9 0
v -0.2 4 0
v -0.2 4.1 0
v -0.2 4.2 0
v -0.2 4.5 0
v -0.1 4 0
v -0.1 4.5 0
v 0 4 0
v 0 4.5 0
v 0.1 4 0
v 0.1 4.5 0
v 0.2 4 0
v 0.2 4.2 0
v 0.2 4.3 0
v 0.2 4.4 0
v 0.3 4.3 0
v 0.3 4.4 0
v 0.4 4.2 0
v 0.4 4.5 0
v 0.4 5.8 0
v 0.4 5.9 0
v 0.6 5.7 0
v 0.6 5.8 0
v 0.9 5.6 0
v 0.9 5.7 0
v 1.1 5.5 0
v 1.1 5.6 0
v 1.3 5.4 0
v 1.3 5.5 0
v 1.4 2.8 0
v 1.4 5.4 0
v -1.3 2.8 -0.7
v -1.3 5.4 -0.7
v -1.2 5.4 -0.7
v -1.2 5.5 -0.7
v -1 5.5 -0.7
v -1 5.6 -0.7
v -0.8 5.6 -0.7
v -0.8 5.7 -0.7
v -0.5 5.7 -0.7
v -0.5 5.8 -0.7
v -0.3 5.8 -0.7
v -0.3 5.9 -0.7
v 0.4 5.8 -0.7
v 0.4 5.9 -0.7
v 0.6 5.7 -0.7
v 0.6 5.8 -0.7
v 0.9 5.6 -0.7
v 0.9 5.7 -0.7
v 1.1 5.5 -0.7
v 1.1 5.6 -0.7
v 1.3 5.4 -0.7
v 1.3 5.5 -0.7
v 1.4 2.8 -0.7
v 1.4 5.4 -0.7
v -1.6 2.4 -1
v -1.6 2.8 -1
v 1.7 2.4 -1
v 1.7 2.8 -1
v -1.6 2.4 0.3
v 1.7 2.4 0.3
v -1.6 2.4 -1
v 1.7 2.4 -1
v -1.6 2.8 0.3
v 1.7 2.8 0.3
v -1.3 2.8 0
v 1.4 2.8 0
v -1.3 2.8 -0.7
v 1.4 2.8 -0.7
v -1.6 2.8 -1
v 1.7 2.8 -1
v -1.3 5.4 0
v -1.2 5.4 0
v 1.3 5.4 0
v 1.4 5.4 0
v -1.3 5.4 -0.7
v -1.2 5.4 -0.7
v 1.3 5.4 -0.7
v 1.4 5.4 -0.7
v -1.2 5.5 0
v -1 5.5 0
v 1.1 5.5 0
v 1.3 5.5 0
v -1.2 5.5 -0.7
v -1 5.5 -0.7
v 1.1 5.5 -0.7
v 1.3 5.5 -0.7
v -1 5.6 0
v -0.8 5.6 0
v 0.9 5.6 0
v 1.1 5.6 0
v -1 5.6 -0.7
v -0.8 5.6 -0.7
v 0.9 5.6 -0.7
v 1.1 5.6 -0.7
v -0.8 5.7 0
v -0.5 5.7 0
v 0.6 5.7 0
v 0.9 5.7 0
v -0.8 5.7 -0.7
v -0.5 5.7 -0.7
v 0.6 5.7 -0.7
v 0.9 5.7 -0.7
v -0.5 5.8 0
v -0.3 5.8 0
v 0.4 5.8 0
v 0.6 5.8 0
v -0.5 5.8 -0.7
v -0.3 5.8 -0.7
v 0.4 5.8 -0.7
v 0.6 5.8 -0.7
v -0.3 5.9 0
v 0.4 5.9 0
v -0.3 5.9 -0.7
v 0.4 5.9 -0.7

# faces
f 3/3/1 2/3/1 1/3/1
f 4/3/1 2/3/1 3/3/1
f 7/2/1 6/2/1 5/2/1
f 8/2/1 6/2/1 7/2/1
f 11/2/1 10/2/1 9/2/1
f 12/2/1 10/2/1 11/2/1
f 15/2/1 14/2/1 13/2/1
f 16/2/1 14/2/1 15/2/1
f 19/2/1 18/2/1 17/2/1
f 20/2/1 18/2/1 19/2/1
f 23/2/1 22/2/1 21/2/1
f 24/2/1 22/2/1 23/2/1
f 27/2/1 26/2/1 25/2/1
f 28/2/1 26/2/1 27/2/1
f 29/2/2 30/2/2 31/2/2
f 31/2/2 30/2/2 32/2/2
f 33/2/2 34/2/2 35/2/2
f 35/2/2 34/2/2 36/2/2
f 37/2/2 38/2/2 39/2/2
f 39/2/2 38/2/2 40/2/2
f 41/2/2 42/2/2 43/2/2
f 43/2/2 42/2/2 44/2/2
f 45/2/2 46/2/2 47/2/2
f 47/2/2 46/2/2 48/2/2
f 49/2/2 50/2/2 51/2/2
f 51/2/2 50/2/2 52/2/2
f 53/3/2 54/3/2 55/3/2
f 55/3/2 54/3/2 56/3/2
f 59/3/3 58/3/3 57/3/3
f 60/3/3 58/3/3 59/3/3
f 63/2/3 62/2/3 61/2/3
f 65/2/3 64/2/3 63/2/3
f 67/2/3 66/2/3 65/2/3
f 69/2/3 63/2/3 61/2/3
f 69/2/3 68/2/3 67/2/3
f 69/2/3 67/2/3 65/2/3
f 69/2/3 65/2/3 63/2/3
f 70/2/3 68/2/3 69/2/3
f 71/2/3 68/2/3 70/2/3
f 73/2/3 69/2/3 61/2/3
f 73/1/3 70/1/3 69/1/3
f 74/1/3 70/1/3 73/1/3
f 75/1/3 70/1/3 74/1/3
f 76/1/3 70/1/3 75/1/3
f 77/2/3 73/2/3 61/2/3
f 77/2/3 74/2/3 73/2/3
f 78/1/3 75/1/3 74/1/3
f 78/2/3 74/2/3 77/2/3
f 79/1/3 75/1/3 78/1/3
f 80/2/3 76/2/3 75/2/3
f 80/1/3 75/1/3 79/1/3
f 81/1/3 70/1/3 76/1/3
f 81/2/3 76/2/3 80/2/3
f 82/2/3 72/2/3 71/2/3
f 82/2/3 71/2/3 70/2/3
f 84/2/3 77/2/3 61/2/3
f 84/1/3 78/1/3 77/1/3
f 85/2/3 79/2/3 78/2/3
f 85/1/3 78/1/3 84/1/3
f 86/1/3 81/1/3 80/1/3
f 86/2/3 79/2/3 85/2/3
f 86/1/3 80/1/3 79/1/3
f 87/1/3 70/1/3 81/1/3
f 87/1/3 81/1/3 86/1/3
f 87/2/3 82/2/3 70/2/3
f 87/2/3 83/2/3 82/2/3
f 88/2/3 86/2/3 85/2/3
f 88/2/3 85/2/3 84/2/3
f 88/2/3 87/2/3 86/2/3
f 88/2/3 84/2/3 61/2/3
f 89/2/3 83/2/3 87/2/3
f 89/2/3 87/2/3 88/2/3
f 90/2/3 88/2/3 61/2/3
f 90/1/3 89/1/3 88/1/3
f 91/2/3 83/2/3 89/2/3
f 91/1/3 89/1/3 90/1/3
f 92/2/3 90/2/3 61/2/3
f 92/2/3 91/2/3 90/2/3
f 93/2/3 83/2/3 91/2/3
f 93/2/3 91/2/3 92/2/3
f 94/2/3 92/2/3 61/2/3
f 94/1/3 93/1/3 92/1/3
f 95/1/3 93/1/3 94/1/3
f 96/1/3 93/1/3 95/1/3
f 97/1/3 93/1/3 96/1/3
f 98/1/3 96/1/3 95/1/3
f 98/2/3 97/2/3 96/2/3
f 99/1/3 93/1/3 97/1/3
f 99/2/3 97/2/3 98/2/3
f 100/2/3 95/2/3 94/2/3
f 100/1/3 98/1/3 95/1/3
f 100/1/3 99/1/3 98/1/3
f 101/2/3 83/2/3 93/2/3
f 101/1/3 99/1/3 100/1/3
f 101/1/3 93/1/3 99/1/3
f 102/2/3 83/2/3 101/2/3
f 103/2/3 83/2/3 102/2/3
f 104/2/3 101/2/3 100/2/3
f 104/2/3 102/2/3 101/2/3
f 105/2/3 102/2/3 104/2/3
f 106/2/3 104/2/3 100/2/3
f 107/2/3 104/2/3 106/2/3
f 108/2/3 106/2/3 100/2/3
f 109/2/3 106/2/3 108/2/3
f 110/2/3 108/2/3 100/2/3
f 111/2/3 108/2/3 110/2/3
f 112/2/3 100/2/3 94/2/3
f 112/2/3 94/2/3 61/2/3
f 112/2/3 110/2/3 100/2/3
f 113/2/3 110/2/3 112/2/3
f 114/2/4 115/2/4 116/2/4
f 116/2/4 117/2/4 118/2/4
f 118/2/4 119/2/4 120/2/4
f 120/2/4 121/2/4 122/2/4
f 122/2/4 123/2/4 124/2/4
f 122/2/4 124/2/4 126/2/4
f 124/2/4 125/2/4 126/2/4
f 126/2/4 125/2/4 127/2/4
f 120/2/4 122/2/4 128/2/4
f 122/2/4 126/2/4 128/2/4
f 128/2/4 126/2/4 129/2/4
f 118/2/4 120/2/4 130/2/4
f 120/2/4 128/2/4 130/2/4
f 130/2/4 128/2/4 131/2/4
f 116/2/4 118/2/4 132/2/4
f 118/2/4 130/2/4 132/2/4
f 132/2/4 130/2/4 133/2/4
f 114/2/4 116/2/4 134/2/4
f 116/2/4 132/2/4 134/2/4
f 134/2/4 132/2/4 135/2/4
f 114/2/4 134/2/4 136/2/4
f 136/2/4 134/2/4 137/2/4
f 138/3/4 139/3/4 140/3/4
f 140/3/4 139/3/4 141/3/4
f 144/3/5 143/3/5 142/3/5
f 145/3/5 143/3/5 144/3/5
f 146/3/6 147/3/6 148/3/6
f 148/3/6 147/3/6 149/3/6
f 146/3/6 148/3/6 150/3/6
f 149/3/6 147/3/6 151/3/6
f 146/3/6 150/3/6 152/3/6
f 150/3/6 151/3/6 152/3/6
f 151/3/6 147/3/6 153/3/6
f 152/3/6 151/3/6 153/3/6
f 154/2/6 155/2/6 158/2/6
f 158/2/6 155/2/6 159/2/6
f 156/2/6 157/2/6 160/2/6
f 160/2/6 157/2/6 161/2/6
f 162/2/6 163/2/6 166/2/6
f 166/2/6 163/2/6 167/2/6
f 164/2/6 165/2/6 168/2/6
f 168/2/6 165/2/6 169/2/6
f 170/2/6 171/2/6 174/2/6
f 174/2/6 171/2/6 175/2/6
f 172/2/6 173/2/6 176/2/6
f 176/2/6 173/2/6 177/2/6
f 178/2/6 179/2/6 182/2/6
f 182/2/6 179/2/6 183/2/6
f 180/2/6 181/2/6 184/2/6
f 184/2/6 181/2/6 185/2/6
f 186/2/6 187/2/6 190/2/6
f 190/2/6 187/2/6 191/2/6
f 188/2/6 189/2/6 192/2/6
f 192/2/6 189/2/6 193/2/6
f 194/2/6 195/2/6 196/2/6
f 196/2/6 195/2/6 197/2/6
